<svg width="106" height="105" viewBox="0 0 106 105" fill="none" xmlns="http://www.w3.org/2000/svg">
<path d="M89.7078 16.3774C79.99 6.65957 67.0489 1.28732 53.2959 1.28732C39.5429 1.28732 26.6256 6.6357 16.884 16.3774C7.16615 26.0952 1.79388 39.0364 1.79388 52.7893C1.79388 66.5423 7.14228 79.4835 16.884 89.2013C26.6018 98.9191 39.5429 104.291 53.2959 104.291C67.0489 104.291 79.9661 98.9429 89.7078 89.2013C99.4256 79.4835 104.798 66.5423 104.798 52.7893C104.798 39.0364 99.4495 26.1191 89.7078 16.3774Z" fill="#88C0E5"/>
<path d="M105.204 48.1334C103.843 39.705 102.195 33.8074 97.0143 24.9014C95.1041 21.6065 92.7164 18.5264 88.3231 18.216L78.1517 17.5474C75.1671 17.3564 72.3019 18.3353 70.0814 20.2932C67.837 22.2511 66.5237 24.9969 66.3327 27.9577L65.7358 37.8665C65.5686 40.66 66.4521 43.382 68.219 45.5548C69.9859 47.7275 72.469 49.1363 75.2387 49.5422L78.1039 49.9481C80.8258 50.3301 83.118 52.0492 84.2402 54.5563L89.326 70.3388C89.326 70.3388 89.3737 70.4343 89.3976 70.5059C90.0184 71.8907 91.3316 72.7742 92.8597 72.7981H92.9552C94.4355 72.7981 95.7488 71.9862 96.4173 70.6492C97.1575 69.1688 98.2797 67.7362 99.4735 66.1842C102.673 62.0774 106.684 56.9439 105.252 48.1334H105.204Z" fill="#0070BA"/>
<path d="M60.1963 2.07503C60.0053 1.47811 59.48 1.04833 58.8592 1.00058C58.5727 0.976703 52.0305 0.355909 47.661 1.00058C47.1358 1.07221 46.706 1.40648 46.4911 1.88402C45.7987 3.45988 44.2944 7.3279 45.5838 9.33354C46.0852 10.0976 46.897 10.5274 47.8998 10.5274C51.0993 10.5274 57.737 5.29838 59.6949 3.69864C60.1724 3.29274 60.3873 2.64807 60.1963 2.05115V2.07503Z" fill="#0070BA"/>
<path d="M48.1624 66.6616C49.213 64.5605 49.0936 62.1489 47.8759 60.1433C46.6582 58.1615 44.5093 56.9677 42.1932 56.9677H36.821C36.4389 56.9677 36.0808 56.9199 35.7227 56.8005L23.1158 52.7415C21.1579 52.1207 19.0568 52.4072 17.3377 53.5533C15.6185 54.6994 14.544 56.514 14.3769 58.5674L13.6367 67.6644C13.4457 70.0043 14.5202 72.3204 16.4542 73.6813L22.2801 77.7881C22.9247 78.2418 23.4262 78.9103 23.6411 79.6744L25.6706 86.3121C26.172 87.9118 27.2226 89.2728 28.6791 90.1324L39.2325 96.3403C39.8772 96.7223 40.5696 96.8895 41.2621 96.8895C42.2171 96.8895 43.1483 96.5313 43.8885 95.8628C45.2017 94.6928 45.5837 92.8782 44.8436 91.2785L41.2621 83.3992C40.8084 82.3963 40.8323 81.2741 41.3098 80.2952L48.1386 66.6377L48.1624 66.6616Z" fill="#0070BA"/>
<path d="M39.8774 15.8042C37.4181 13.5837 34.7677 15.2073 32.6427 16.5205C31.2101 17.3801 29.7536 18.2874 28.321 18.3113C28.2255 18.3113 28.13 18.3113 28.0345 18.3113C28.4404 17.5711 29.3955 16.425 29.9447 15.7326C30.2073 15.3983 30.4699 15.0879 30.7087 14.7775C32.2607 12.7958 33.6456 9.071 32.1652 7.25637C31.8787 6.89822 30.7804 5.82377 28.8225 6.80271C26.2916 8.06818 12.1804 17.3085 6.06802 30.8465C3.44158 36.6486 4.63542 42.9043 9.50626 48.9212C13.04 53.2906 17.2662 55.9887 17.4572 56.1081C17.7198 56.2752 18.0063 56.3468 18.269 56.3468C18.6749 56.3468 19.0808 56.1797 19.3673 55.8693C19.8687 55.344 19.9403 54.5322 19.5344 53.9353C18.3167 52.1207 18.6271 51.285 19.1763 49.7807C19.5583 48.754 20.0358 47.4647 19.8926 45.8172C19.7971 44.6711 19.4628 43.7399 19.033 42.9759C20.8715 44.1458 22.4952 45.0054 23.8323 44.5995C25.6469 44.0503 26.5303 41.5433 27.748 38.0334C28.4643 35.98 29.2761 33.664 30.1834 32.303C31.1862 30.7988 32.1891 30.7033 33.9799 30.56C35.1737 30.4645 36.5346 30.3451 38.0388 29.7243C39.9967 28.9125 41.4533 26.692 41.9547 23.8029C42.5038 20.5557 41.7159 17.404 39.9012 15.7803L39.8774 15.8042Z" fill="#88C0E5"/>
<path d="M40.5458 73.5859C39.9966 73.5859 39.4951 73.2994 39.2086 72.798L13.8038 27.7427C13.5412 27.289 13.5412 26.7637 13.7799 26.2862L15.9766 21.8929C16.287 21.2482 17.0272 20.9139 17.7196 21.0811L85.0041 37.2456C85.41 37.3411 85.7682 37.6037 85.9831 37.9619L90.7822 46.1516C90.9971 46.5097 91.0449 46.9634 90.9255 47.3454C90.8061 47.7513 90.5196 48.0856 90.1615 48.2766L48.043 70.1715C48.043 70.1715 48.0191 70.1715 47.9953 70.1715L41.2143 73.3949C40.9994 73.4904 40.7845 73.5381 40.5458 73.5381V73.5859ZM16.9078 26.9309L41.1904 70.0283L46.6343 67.4257L87.2724 46.2948L83.6431 40.063L18.1971 24.3522L16.9078 26.9309Z" fill="white"/>
<path d="M21.012 23.33L20.9574 23.2672C19.6513 21.7792 17.776 20.9273 15.8032 20.9273C15.6667 20.9273 15.5536 21.0372 15.5497 21.1785L15.4874 26.2314H1.857C1.71664 26.2314 1.60358 26.3453 1.60358 26.4866V28.5478C1.60358 28.6892 1.71664 28.803 1.857 28.803H21.6514C21.7918 28.803 21.9049 28.6892 21.9049 28.5478V25.7132C21.9049 24.8377 21.5891 23.9936 21.012 23.3379V23.33Z" fill="#E0E0E0"/>
<path d="M12.7893 16.1452H2.42228C1.33272 16.1452 0.449463 17.0347 0.449463 18.1318V24.7669C0.449463 25.8641 1.33272 26.7536 2.42228 26.7536H12.7893C13.8789 26.7536 14.7621 25.8641 14.7621 24.7669V18.1318C14.7621 17.0347 13.8789 16.1452 12.7893 16.1452Z" fill="#CB005C"/>
<path d="M19.9085 28.8815C19.9085 29.7413 19.2184 30.4363 18.3646 30.4363C17.5107 30.4363 16.8206 29.7413 16.8206 28.8815C16.8206 28.0217 17.5107 27.3268 18.3646 27.3268C19.2184 27.3268 19.9085 28.0217 19.9085 28.8815Z" fill="#013177"/>
<path d="M18.3647 30.7739C17.3276 30.7739 16.4854 29.9258 16.4854 28.8815C16.4854 27.8371 17.3276 26.9891 18.3647 26.9891C19.4017 26.9891 20.2439 27.8371 20.2439 28.8815C20.2439 29.9258 19.4017 30.7739 18.3647 30.7739ZM18.3647 27.6644C17.698 27.6644 17.156 28.2101 17.156 28.8815C17.156 29.5528 17.698 30.0986 18.3647 30.0986C19.0314 30.0986 19.5733 29.5528 19.5733 28.8815C19.5733 28.2101 19.0314 27.6644 18.3647 27.6644Z" fill="#013177"/>
<path d="M21.7879 24.7984C21.6475 24.2566 21.3785 23.7501 21.012 23.3339L20.9574 23.2711C20.0763 22.266 18.9339 21.5476 17.6551 21.1864C17.581 21.1667 17.4991 21.1824 17.4368 21.2296C17.3744 21.2767 17.3354 21.3513 17.3354 21.4298V24.8651C17.3354 25.0065 17.4485 25.1203 17.5888 25.1203H21.5461C21.6241 25.1203 21.6982 25.085 21.745 25.0222C21.7918 24.9593 21.8074 24.8808 21.7879 24.8023V24.7984Z" fill="white"/>
<path d="M4.67569 26.9891C3.6386 26.9891 2.79645 27.8371 2.79645 28.8815C2.79645 29.9258 3.6386 30.7739 4.67569 30.7739C5.71278 30.7739 6.55493 29.9258 6.55493 28.8815C6.55493 27.8371 5.71278 26.9891 4.67569 26.9891Z" fill="#0070BA"/>
<path d="M18.3647 26.9891C17.3276 26.9891 16.4854 27.8371 16.4854 28.8815C16.4854 29.9258 17.3276 30.7739 18.3647 30.7739C19.4017 30.7739 20.2439 29.9258 20.2439 28.8815C20.2439 27.8371 19.4017 26.9891 18.3647 26.9891Z" fill="#0070BA"/>
<path d="M4.67577 27.5466C3.94278 27.5466 3.35016 28.1473 3.35016 28.8815C3.35016 29.6157 3.94668 30.2163 4.67577 30.2163C5.40485 30.2163 6.00137 29.6157 6.00137 28.8815C6.00137 28.1473 5.40485 27.5466 4.67577 27.5466Z" fill="#BDBDBD"/>
<path d="M18.3647 27.5466C17.6317 27.5466 17.0391 28.1473 17.0391 28.8815C17.0391 29.6157 17.6356 30.2163 18.3647 30.2163C19.0938 30.2163 19.6942 29.6157 19.6942 28.8815C19.6942 28.1473 19.0977 27.5466 18.3647 27.5466Z" fill="#BDBDBD"/>
<path d="M52.4799 71.9622L52.4253 71.8994C51.1192 70.4114 49.2439 69.5594 47.2711 69.5594C47.1346 69.5594 47.0215 69.6693 47.0176 69.8107L46.9553 74.8636H33.3249C33.1845 74.8636 33.0715 74.9774 33.0715 75.1188V77.18C33.0715 77.3213 33.1845 77.4352 33.3249 77.4352H53.1193C53.2597 77.4352 53.3728 77.3213 53.3728 77.18V74.3453C53.3728 73.4698 53.057 72.6257 52.4799 71.97V71.9622Z" fill="#E0E0E0"/>
<path d="M44.2571 64.7773H33.8901C32.8006 64.7773 31.9173 65.6668 31.9173 66.764V73.3991C31.9173 74.4962 32.8006 75.3857 33.8901 75.3857H44.2571C45.3467 75.3857 46.23 74.4962 46.23 73.3991V66.764C46.23 65.6668 45.3467 64.7773 44.2571 64.7773Z" fill="#CB005C"/>
<path d="M51.3765 77.5137C51.3765 78.3735 50.6864 79.0684 49.8325 79.0684C48.9787 79.0684 48.2886 78.3735 48.2886 77.5137C48.2886 76.6539 48.9787 75.959 49.8325 75.959C50.6864 75.959 51.3765 76.6539 51.3765 77.5137Z" fill="#013177"/>
<path d="M49.8326 79.406C48.7955 79.406 47.9533 78.558 47.9533 77.5136C47.9533 76.4693 48.7955 75.6212 49.8326 75.6212C50.8696 75.6212 51.7118 76.4693 51.7118 77.5136C51.7118 78.558 50.8696 79.406 49.8326 79.406ZM49.8326 76.2965C49.1658 76.2965 48.6239 76.8423 48.6239 77.5136C48.6239 78.185 49.1658 78.7307 49.8326 78.7307C50.4993 78.7307 51.0412 78.185 51.0412 77.5136C51.0412 76.8423 50.4993 76.2965 49.8326 76.2965Z" fill="#013177"/>
<path d="M53.2558 73.4305C53.1154 72.8887 52.8464 72.3823 52.4799 71.9661L52.4253 71.9033C51.5442 70.8982 50.4018 70.1797 49.123 69.8185C49.0489 69.7989 48.967 69.8146 48.9047 69.8617C48.8423 69.9088 48.8033 69.9834 48.8033 70.0619V73.4973C48.8033 73.6386 48.9163 73.7525 49.0567 73.7525H53.014C53.092 73.7525 53.1661 73.7171 53.2129 73.6543C53.2597 73.5915 53.2753 73.513 53.2558 73.4344V73.4305Z" fill="white"/>
<path d="M36.1436 75.6212C35.1065 75.6212 34.2643 76.4693 34.2643 77.5136C34.2643 78.558 35.1065 79.406 36.1436 79.406C37.1807 79.406 38.0228 78.558 38.0228 77.5136C38.0228 76.4693 37.1807 75.6212 36.1436 75.6212Z" fill="#0070BA"/>
<path d="M49.8326 75.6212C48.7955 75.6212 47.9533 76.4693 47.9533 77.5136C47.9533 78.558 48.7955 79.406 49.8326 79.406C50.8696 79.406 51.7118 78.558 51.7118 77.5136C51.7118 76.4693 50.8696 75.6212 49.8326 75.6212Z" fill="#0070BA"/>
<path d="M36.1437 76.1787C35.4107 76.1787 34.8181 76.7794 34.8181 77.5136C34.8181 78.2478 35.4146 78.8485 36.1437 78.8485C36.8727 78.8485 37.4693 78.2478 37.4693 77.5136C37.4693 76.7794 36.8727 76.1787 36.1437 76.1787Z" fill="#BDBDBD"/>
<path d="M49.8326 76.1787C49.0996 76.1787 48.507 76.7794 48.507 77.5136C48.507 78.2478 49.1035 78.8485 49.8326 78.8485C50.5617 78.8485 51.1621 78.2478 51.1621 77.5136C51.1621 76.7794 50.5655 76.1787 49.8326 76.1787Z" fill="#BDBDBD"/>
<path d="M99.6817 41.9247L99.6271 41.8619C98.321 40.3739 96.4457 39.5219 94.4729 39.5219C94.3364 39.5219 94.2233 39.6319 94.2194 39.7732L94.157 44.8261H80.5267C80.3863 44.8261 80.2733 44.94 80.2733 45.0813V47.1425C80.2733 47.2838 80.3863 47.3977 80.5267 47.3977H100.321C100.461 47.3977 100.575 47.2838 100.575 47.1425V44.3079C100.575 43.4323 100.259 42.5882 99.6817 41.9326V41.9247Z" fill="#E0E0E0"/>
<path d="M91.4589 34.7399H81.0919C80.0023 34.7399 79.1191 35.6293 79.1191 36.7265V43.3616C79.1191 44.4588 80.0023 45.3482 81.0919 45.3482H91.4589C92.5485 45.3482 93.4317 44.4588 93.4317 43.3616V36.7265C93.4317 35.6293 92.5485 34.7399 91.4589 34.7399Z" fill="#CB005C"/>
<path d="M98.5782 47.4762C98.5782 48.336 97.8881 49.0309 97.0342 49.0309C96.1804 49.0309 95.4903 48.336 95.4903 47.4762C95.4903 46.6164 96.1804 45.9215 97.0342 45.9215C97.8881 45.9215 98.5782 46.6164 98.5782 47.4762Z" fill="#013177"/>
<path d="M97.0343 49.3685C95.9972 49.3685 95.1551 48.5205 95.1551 47.4761C95.1551 46.4318 95.9972 45.5838 97.0343 45.5838C98.0714 45.5838 98.9136 46.4318 98.9136 47.4761C98.9136 48.5205 98.0714 49.3685 97.0343 49.3685ZM97.0343 46.2591C96.3676 46.2591 95.8257 46.8048 95.8257 47.4761C95.8257 48.1475 96.3676 48.6932 97.0343 48.6932C97.701 48.6932 98.243 48.1475 98.243 47.4761C98.243 46.8048 97.701 46.2591 97.0343 46.2591Z" fill="#013177"/>
<path d="M100.458 43.393C100.317 42.8512 100.048 42.3448 99.6817 41.9286L99.6271 41.8658C98.746 40.8607 97.6036 40.1422 96.3248 39.781C96.2507 39.7614 96.1688 39.7771 96.1064 39.8242C96.0441 39.8713 96.0051 39.9459 96.0051 40.0244V43.4598C96.0051 43.6011 96.1181 43.715 96.2585 43.715H100.216C100.294 43.715 100.368 43.6796 100.415 43.6168C100.461 43.554 100.477 43.4755 100.458 43.397V43.393Z" fill="white"/>
<path d="M83.3454 45.5838C82.3083 45.5838 81.4661 46.4318 81.4661 47.4761C81.4661 48.5205 82.3083 49.3685 83.3454 49.3685C84.3825 49.3685 85.2246 48.5205 85.2246 47.4761C85.2246 46.4318 84.3825 45.5838 83.3454 45.5838Z" fill="#0070BA"/>
<path d="M97.0343 45.5838C95.9972 45.5838 95.1551 46.4318 95.1551 47.4761C95.1551 48.5205 95.9972 49.3685 97.0343 49.3685C98.0714 49.3685 98.9136 48.5205 98.9136 47.4761C98.9136 46.4318 98.0714 45.5838 97.0343 45.5838Z" fill="#0070BA"/>
<path d="M83.3454 46.1413C82.6124 46.1413 82.0198 46.742 82.0198 47.4761C82.0198 48.2103 82.6163 48.811 83.3454 48.811C84.0745 48.811 84.671 48.2103 84.671 47.4761C84.671 46.742 84.0745 46.1413 83.3454 46.1413Z" fill="#BDBDBD"/>
<path d="M97.0343 46.1413C96.3014 46.1413 95.7087 46.742 95.7087 47.4761C95.7087 48.2103 96.3053 48.811 97.0343 48.811C97.7634 48.811 98.3639 48.2103 98.3639 47.4761C98.3639 46.742 97.7673 46.1413 97.0343 46.1413Z" fill="#BDBDBD"/>
</svg>
