<svg width="83" height="73" viewBox="0 0 83 73" fill="none" xmlns="http://www.w3.org/2000/svg">
<ellipse cx="38.4744" cy="65.4088" rx="34.7045" ry="7.30621" fill="#E0E0E0"/>
<path d="M59.7087 12.1123C59.6196 11.8749 59.4267 11.682 59.1893 11.5929L42.0205 4.30694C41.5308 4.09919 40.9669 4.32178 40.7592 4.81146L34.8384 18.775C34.7345 19.0124 34.7345 19.2796 34.8384 19.5021C34.9274 19.7396 35.1203 19.9325 35.3578 20.0215L52.5266 27.3075C52.6453 27.3668 52.7788 27.3817 52.8975 27.3817C53.2685 27.3817 53.6247 27.1591 53.773 26.803L59.6938 12.8394C59.7977 12.602 59.7977 12.3349 59.6938 12.1123H59.7087Z" fill="#DF1B74"/>
<path d="M53.788 26.0609C53.6989 25.8235 53.506 25.6306 53.2686 25.5416L22.7001 12.5871C22.2104 12.3793 21.6465 12.6019 21.4388 13.0916L12.0012 35.365C11.7934 35.8547 12.016 36.4186 12.5057 36.6263L43.0742 49.5808C43.1929 49.6254 43.3264 49.655 43.4451 49.655C43.5638 49.655 43.6826 49.6254 43.8013 49.5808C44.0387 49.4918 44.2316 49.2989 44.3206 49.0615L53.7583 26.788C53.8621 26.5506 53.8621 26.2984 53.7583 26.0609H53.788Z" fill="#DF1B74"/>
<path d="M44.0969 5.18323L37.4315 20.9087L43.402 23.4394L50.0674 7.71387L44.0969 5.18323Z" fill="#EDB2CD"/>
<path d="M40.0767 57.6534C39.958 57.6534 39.8245 57.6237 39.7058 57.5792C39.2161 57.3715 38.9935 56.8076 39.2012 56.3179L62.825 0.582361C63.0328 0.0926721 63.5966 -0.129914 64.0863 0.0778331C64.576 0.28558 64.7986 0.849464 64.5909 1.33915L40.9671 57.0598C40.8187 57.4308 40.4625 57.6386 40.0916 57.6386L40.0767 57.6534Z" fill="#0070BA"/>
<path d="M82.3531 7.8239L64.0714 0.0779051C63.834 -0.0259684 63.5817 -0.0259684 63.3443 0.0779051C63.1069 0.166939 62.914 0.359847 62.8249 0.597272L60.9404 5.04899C60.7326 5.53868 60.9552 6.10256 61.4449 6.31031L79.7118 14.0563C79.8305 14.1008 79.964 14.1305 80.0827 14.1305C80.2015 14.1305 80.3202 14.1008 80.4389 14.0563C80.6763 13.9673 80.8692 13.7744 80.9583 13.5369L82.8428 9.08522C83.0506 8.59553 82.828 8.03164 82.3383 7.8239H82.3531Z" fill="#0070BA"/>
<path d="M28.1656 14.9041L17.9794 38.9364L23.9499 41.467L34.1361 17.4348L28.1656 14.9041Z" fill="#EDB2CD"/>
<path d="M43.8457 47.8151L5.36804 31.507C5.13062 31.4031 4.86351 31.4031 4.64093 31.507C4.4035 31.596 4.21059 31.7889 4.12156 32.0264L0.723413 40.0098C0.619539 40.2472 0.619539 40.4995 0.723413 40.7369C0.812447 40.9743 1.00536 41.1672 1.24278 41.2562L39.7205 57.5644C39.8392 57.6089 39.9727 57.6386 40.0914 57.6386C40.2102 57.6386 40.3289 57.6089 40.4476 57.5644C40.685 57.4753 40.8779 57.2824 40.967 57.045L44.3503 49.0468C44.558 48.5571 44.3354 47.9932 43.8457 47.7854V47.8151Z" fill="#0070BA"/>
<path d="M44.8548 45.4112C38.6372 42.7698 31.4254 45.6931 28.7989 51.9107C26.1576 58.1282 29.0809 65.34 35.2984 67.9665C36.8565 68.6195 38.474 68.9311 40.0618 68.9311C44.84 68.9311 49.3807 66.1265 51.3543 61.467C53.9957 55.2495 51.0724 48.0377 44.8548 45.4112Z" fill="#0070BA"/>
<path d="M41.7831 52.6823C39.5721 51.7474 37.0198 52.7862 36.0701 54.9972C35.1352 57.2082 36.1739 59.7605 38.385 60.7102C38.934 60.9477 39.5127 61.0515 40.0766 61.0515C41.7683 61.0515 43.3857 60.0573 44.098 58.3953C45.0329 56.1843 43.9941 53.632 41.7831 52.6823Z" fill="#C7E9FF"/>
</svg>
