<svg width="116" height="29" viewBox="0 0 116 29" fill="none" xmlns="http://www.w3.org/2000/svg">
<ellipse cx="14.5539" cy="25.1769" rx="13.3518" ry="2.81091" fill="#E0E0E0"/>
<path d="M22.7234 4.67218C22.6891 4.58084 22.6149 4.50662 22.5236 4.47236L15.9182 1.66923C15.7298 1.58931 15.5129 1.67494 15.4329 1.86334L13.155 7.23553C13.1151 7.32688 13.1151 7.42964 13.155 7.51528C13.1893 7.60662 13.2635 7.68084 13.3549 7.71509L19.9602 10.5182C20.0059 10.5411 20.0573 10.5468 20.1029 10.5468C20.2457 10.5468 20.3827 10.4611 20.4398 10.3241L22.7177 4.95192C22.7576 4.86058 22.7576 4.75782 22.7177 4.67218H22.7234Z" fill="#DF1B74"/>
<path d="M20.4455 10.0386C20.4112 9.94729 20.337 9.87307 20.2456 9.83882L8.48504 4.85484C8.29664 4.77491 8.0797 4.86055 7.99977 5.04895L4.36883 13.6182C4.28891 13.8066 4.37454 14.0235 4.56294 14.1035L16.3235 19.0874C16.3692 19.1046 16.4206 19.116 16.4663 19.116C16.5119 19.116 16.5576 19.1046 16.6033 19.0874C16.6946 19.0532 16.7688 18.979 16.8031 18.8876L20.434 10.3184C20.474 10.227 20.474 10.13 20.434 10.0386H20.4455Z" fill="#DF1B74"/>
<path d="M16.7171 2.00633L14.1527 8.0564L16.4497 9.03001L19.0141 2.97995L16.7171 2.00633Z" fill="#EDB2CD"/>
<path d="M15.1703 22.1932C15.1246 22.1932 15.0733 22.1818 15.0276 22.1646C14.8392 22.0847 14.7536 21.8678 14.8335 21.6794L23.9223 0.236264C24.0022 0.047866 24.2191 -0.0377694 24.4075 0.042157C24.5959 0.122083 24.6816 0.339026 24.6016 0.527424L15.5129 21.9648C15.4558 22.1075 15.3188 22.1875 15.176 22.1875L15.1703 22.1932Z" fill="#0070BA"/>
<path d="M31.4354 3.02229L24.4018 0.0421794C24.3105 0.00221624 24.2134 0.00221624 24.1221 0.0421794C24.0307 0.0764336 23.9565 0.150651 23.9223 0.241995L23.1972 1.9547C23.1173 2.1431 23.2029 2.36004 23.3913 2.43997L30.4191 5.42008C30.4648 5.43721 30.5162 5.44863 30.5619 5.44863C30.6075 5.44863 30.6532 5.43721 30.6989 5.42008C30.7902 5.38583 30.8645 5.31161 30.8987 5.22027L31.6238 3.50756C31.7037 3.31916 31.618 3.10222 31.4296 3.02229H31.4354Z" fill="#0070BA"/>
<path d="M10.5877 5.74626L6.66879 14.9922L8.96582 15.9658L12.8848 6.71987L10.5877 5.74626Z" fill="#EDB2CD"/>
<path d="M16.6204 18.4081L1.8169 12.1339C1.72555 12.0939 1.62279 12.0939 1.53716 12.1339C1.44581 12.1681 1.37159 12.2423 1.33734 12.3337L0.0299724 15.4051C-0.0099908 15.4965 -0.0099908 15.5935 0.0299724 15.6849C0.0642266 15.7762 0.138444 15.8504 0.229788 15.8847L15.0333 22.1589C15.079 22.176 15.1303 22.1874 15.176 22.1874C15.2217 22.1874 15.2674 22.176 15.313 22.1589C15.4044 22.1247 15.4786 22.0504 15.5129 21.9591L16.8145 18.8819C16.8944 18.6935 16.8088 18.4766 16.6204 18.3967V18.4081Z" fill="#0070BA"/>
<path d="M17.0086 17.4832C14.6165 16.467 11.8419 17.5917 10.8314 19.9838C9.8152 22.3758 10.9399 25.1504 13.332 26.1609C13.9314 26.4121 14.5537 26.532 15.1646 26.532C17.0029 26.532 18.7498 25.453 19.5091 23.6604C20.5253 21.2683 19.4007 18.4937 17.0086 17.4832Z" fill="#0070BA"/>
<path d="M15.8269 20.2806C14.9762 19.921 13.9943 20.3206 13.6289 21.1712C13.2692 22.0219 13.6689 23.0038 14.5195 23.3692C14.7307 23.4606 14.9534 23.5005 15.1703 23.5005C15.8212 23.5005 16.4435 23.118 16.7175 22.4786C17.0772 21.628 16.6775 20.646 15.8269 20.2806Z" fill="#C7E9FF"/>
<path d="M40.7737 19.144C39.9524 19.144 39.1737 19.0373 38.4377 18.824C37.7124 18.6 37.1204 18.3013 36.6617 17.928C36.4164 17.7467 36.2937 17.4907 36.2937 17.16C36.2937 16.936 36.3577 16.744 36.4857 16.584C36.6244 16.4133 36.7844 16.328 36.9657 16.328C37.1577 16.328 37.3764 16.4027 37.6217 16.552C38.0804 16.8827 38.5604 17.1227 39.0617 17.272C39.563 17.4213 40.1177 17.496 40.7257 17.496C41.5044 17.496 42.1017 17.3627 42.5177 17.096C42.9337 16.8187 43.1417 16.4187 43.1417 15.896C43.1417 15.4907 42.9444 15.1813 42.5497 14.968C42.1657 14.744 41.5204 14.5307 40.6137 14.328C39.675 14.1253 38.9124 13.8907 38.3257 13.624C37.739 13.3573 37.2964 13.016 36.9977 12.6C36.699 12.184 36.5497 11.656 36.5497 11.016C36.5497 10.3547 36.7364 9.76267 37.1097 9.24C37.483 8.71733 38.0004 8.312 38.6617 8.024C39.3337 7.72533 40.0857 7.576 40.9177 7.576C42.443 7.576 43.6857 7.98133 44.6457 8.792C44.7844 8.90933 44.8804 9.02667 44.9337 9.144C44.9977 9.25067 45.0297 9.38933 45.0297 9.56C45.0297 9.784 44.9604 9.98133 44.8217 10.152C44.6937 10.312 44.539 10.392 44.3577 10.392C44.251 10.392 44.1497 10.376 44.0537 10.344C43.9684 10.312 43.851 10.2533 43.7017 10.168C43.2644 9.848 42.8377 9.61333 42.4217 9.464C42.0164 9.304 41.515 9.224 40.9177 9.224C40.1924 9.224 39.6164 9.37333 39.1897 9.672C38.7737 9.96 38.5657 10.3653 38.5657 10.888C38.5657 11.3253 38.7524 11.6613 39.1257 11.896C39.499 12.1307 40.1337 12.3493 41.0297 12.552C41.979 12.7653 42.747 13.0053 43.3337 13.272C43.931 13.528 44.3844 13.8587 44.6937 14.264C45.0137 14.6693 45.1737 15.176 45.1737 15.784C45.1737 16.4453 44.987 17.032 44.6137 17.544C44.251 18.0453 43.7337 18.44 43.0617 18.728C42.4004 19.0053 41.6377 19.144 40.7737 19.144ZM51.3514 17.608C51.8848 17.64 52.1514 17.88 52.1514 18.328C52.1514 18.584 52.0448 18.7813 51.8314 18.92C51.6288 19.048 51.3354 19.1013 50.9514 19.08L50.5194 19.048C48.7274 18.92 47.8314 17.96 47.8314 16.168V12.68H47.0314C46.7434 12.68 46.5194 12.616 46.3594 12.488C46.2101 12.36 46.1354 12.1733 46.1354 11.928C46.1354 11.6827 46.2101 11.496 46.3594 11.368C46.5194 11.24 46.7434 11.176 47.0314 11.176H47.8314V9.704C47.8314 9.416 47.9221 9.18667 48.1034 9.016C48.2848 8.84533 48.5301 8.76 48.8394 8.76C49.1381 8.76 49.3781 8.84533 49.5594 9.016C49.7408 9.18667 49.8314 9.416 49.8314 9.704V11.176H51.1914C51.4794 11.176 51.6981 11.24 51.8474 11.368C52.0074 11.496 52.0874 11.6827 52.0874 11.928C52.0874 12.1733 52.0074 12.36 51.8474 12.488C51.6981 12.616 51.4794 12.68 51.1914 12.68H49.8314V16.312C49.8314 17.1013 50.1941 17.5227 50.9194 17.576L51.3514 17.608ZM57.2617 19.128C56.4617 19.128 55.7577 18.9627 55.1497 18.632C54.5524 18.3013 54.0884 17.8267 53.7577 17.208C53.427 16.5893 53.2617 15.8693 53.2617 15.048C53.2617 14.2267 53.427 13.512 53.7577 12.904C54.0884 12.2853 54.5524 11.8107 55.1497 11.48C55.7577 11.1493 56.4617 10.984 57.2617 10.984C58.0617 10.984 58.7604 11.1493 59.3577 11.48C59.9657 11.8107 60.4297 12.2853 60.7497 12.904C61.0804 13.512 61.2457 14.2267 61.2457 15.048C61.2457 15.8693 61.0804 16.5893 60.7497 17.208C60.4297 17.8267 59.9657 18.3013 59.3577 18.632C58.7604 18.9627 58.0617 19.128 57.2617 19.128ZM57.2457 17.576C57.8964 17.576 58.3924 17.3627 58.7337 16.936C59.075 16.5093 59.2457 15.88 59.2457 15.048C59.2457 14.2267 59.075 13.6027 58.7337 13.176C58.3924 12.7387 57.9017 12.52 57.2617 12.52C56.6217 12.52 56.1257 12.7387 55.7737 13.176C55.4324 13.6027 55.2617 14.2267 55.2617 15.048C55.2617 15.88 55.4324 16.5093 55.7737 16.936C56.115 17.3627 56.6057 17.576 57.2457 17.576ZM67.7648 11.016C68.0421 10.9947 68.2608 11.0533 68.4208 11.192C68.5808 11.3307 68.6608 11.5387 68.6608 11.816C68.6608 12.104 68.5915 12.3173 68.4528 12.456C68.3141 12.5947 68.0635 12.6853 67.7008 12.728L67.2208 12.776C66.5915 12.84 66.1275 13.0533 65.8288 13.416C65.5408 13.7787 65.3968 14.232 65.3968 14.776V18.136C65.3968 18.4453 65.3008 18.6853 65.1088 18.856C64.9168 19.016 64.6768 19.096 64.3888 19.096C64.1008 19.096 63.8608 19.016 63.6688 18.856C63.4875 18.6853 63.3968 18.4453 63.3968 18.136V11.944C63.3968 11.6453 63.4875 11.416 63.6688 11.256C63.8608 11.096 64.0955 11.016 64.3728 11.016C64.6501 11.016 64.8741 11.096 65.0448 11.256C65.2155 11.4053 65.3008 11.624 65.3008 11.912V12.552C65.5035 12.0827 65.8021 11.72 66.1968 11.464C66.6021 11.208 67.0501 11.064 67.5408 11.032L67.7648 11.016ZM76.0576 16.856C76.2389 16.856 76.3829 16.9253 76.4896 17.064C76.6069 17.2027 76.6656 17.3893 76.6656 17.624C76.6656 17.9547 76.4682 18.232 76.0736 18.456C75.7109 18.6587 75.3002 18.824 74.8416 18.952C74.3829 19.0693 73.9456 19.128 73.5296 19.128C72.2709 19.128 71.2736 18.7653 70.5376 18.04C69.8016 17.3147 69.4336 16.3227 69.4336 15.064C69.4336 14.264 69.5936 13.5547 69.9136 12.936C70.2336 12.3173 70.6816 11.8373 71.2576 11.496C71.8442 11.1547 72.5056 10.984 73.2416 10.984C73.9456 10.984 74.5589 11.1387 75.0816 11.448C75.6042 11.7573 76.0096 12.1947 76.2976 12.76C76.5856 13.3253 76.7296 13.992 76.7296 14.76C76.7296 15.2187 76.5269 15.448 76.1216 15.448H71.4016C71.4656 16.184 71.6736 16.728 72.0256 17.08C72.3776 17.4213 72.8896 17.592 73.5616 17.592C73.9029 17.592 74.2016 17.5493 74.4576 17.464C74.7242 17.3787 75.0229 17.2613 75.3536 17.112C75.6736 16.9413 75.9082 16.856 76.0576 16.856ZM73.2896 12.392C72.7456 12.392 72.3082 12.5627 71.9776 12.904C71.6576 13.2453 71.4656 13.736 71.4016 14.376H75.0176C74.9962 13.7253 74.8362 13.2347 74.5376 12.904C74.2389 12.5627 73.8229 12.392 73.2896 12.392ZM80.0656 19.096C79.7562 19.096 79.5056 19 79.3136 18.808C79.1322 18.616 79.0416 18.3653 79.0416 18.056V8.696C79.0416 8.38667 79.1269 8.14667 79.2976 7.976C79.4789 7.80533 79.7242 7.72 80.0336 7.72H85.6496C86.3002 7.72 86.6256 7.99733 86.6256 8.552C86.6256 9.096 86.3002 9.368 85.6496 9.368H81.0736V12.44H85.3296C85.9802 12.44 86.3056 12.7173 86.3056 13.272C86.3056 13.816 85.9802 14.088 85.3296 14.088H81.0736V18.056C81.0736 18.3653 80.9829 18.616 80.8016 18.808C80.6202 19 80.3749 19.096 80.0656 19.096ZM89.4201 19.096C89.1321 19.096 88.8921 19.016 88.7001 18.856C88.5187 18.6853 88.4281 18.4453 88.4281 18.136V8.584C88.4281 8.27467 88.5187 8.04 88.7001 7.88C88.8921 7.72 89.1321 7.64 89.4201 7.64C89.7081 7.64 89.9481 7.72 90.1401 7.88C90.3321 8.04 90.4281 8.27467 90.4281 8.584V18.136C90.4281 18.4453 90.3321 18.6853 90.1401 18.856C89.9481 19.016 89.7081 19.096 89.4201 19.096ZM96.5586 19.128C95.7586 19.128 95.0546 18.9627 94.4466 18.632C93.8492 18.3013 93.3852 17.8267 93.0546 17.208C92.7239 16.5893 92.5586 15.8693 92.5586 15.048C92.5586 14.2267 92.7239 13.512 93.0546 12.904C93.3852 12.2853 93.8492 11.8107 94.4466 11.48C95.0546 11.1493 95.7586 10.984 96.5586 10.984C97.3586 10.984 98.0572 11.1493 98.6546 11.48C99.2626 11.8107 99.7266 12.2853 100.047 12.904C100.377 13.512 100.543 14.2267 100.543 15.048C100.543 15.8693 100.377 16.5893 100.047 17.208C99.7266 17.8267 99.2626 18.3013 98.6546 18.632C98.0572 18.9627 97.3586 19.128 96.5586 19.128ZM96.5426 17.576C97.1932 17.576 97.6892 17.3627 98.0306 16.936C98.3719 16.5093 98.5426 15.88 98.5426 15.048C98.5426 14.2267 98.3719 13.6027 98.0306 13.176C97.6892 12.7387 97.1986 12.52 96.5586 12.52C95.9186 12.52 95.4226 12.7387 95.0706 13.176C94.7292 13.6027 94.5586 14.2267 94.5586 15.048C94.5586 15.88 94.7292 16.5093 95.0706 16.936C95.4119 17.3627 95.9026 17.576 96.5426 17.576ZM113.145 11.608C113.219 11.416 113.326 11.272 113.465 11.176C113.614 11.08 113.774 11.032 113.945 11.032C114.19 11.032 114.409 11.1173 114.601 11.288C114.803 11.448 114.905 11.6507 114.905 11.896C114.905 12.0347 114.878 12.1573 114.825 12.264L112.185 18.456C112.099 18.6587 111.966 18.8133 111.785 18.92C111.614 19.0267 111.422 19.08 111.209 19.08C111.006 19.08 110.814 19.0267 110.633 18.92C110.462 18.8133 110.334 18.6587 110.249 18.456L108.345 13.88L106.505 18.456C106.419 18.6587 106.286 18.8133 106.105 18.92C105.934 19.0267 105.742 19.08 105.529 19.08C105.326 19.08 105.134 19.0267 104.953 18.92C104.771 18.8133 104.638 18.6587 104.553 18.456L101.929 12.264C101.875 12.1253 101.849 12.008 101.849 11.912C101.849 11.6667 101.955 11.4587 102.169 11.288C102.382 11.1067 102.617 11.016 102.873 11.016C103.054 11.016 103.219 11.064 103.369 11.16C103.518 11.256 103.63 11.4 103.705 11.592L105.593 16.472L107.529 11.64C107.614 11.4373 107.737 11.288 107.897 11.192C108.057 11.0853 108.233 11.032 108.425 11.032C108.617 11.032 108.793 11.0853 108.953 11.192C109.113 11.288 109.235 11.4373 109.321 11.64L111.273 16.488L113.145 11.608Z" fill="#0070BA"/>
<path d="M60.0793 24.4227C63.1833 26.3635 67.1913 27.8869 71.1274 28.1782C73.1544 28.3262 75.2106 28.069 77.2657 27.4431C78.4283 27.0896 79.7397 26.6044 80.9727 25.989C80.9342 26.0513 80.8949 26.117 80.8614 26.1813C80.6124 26.6535 81.1328 27.259 81.6471 26.837C82.7588 25.9182 83.6375 24.516 84.4979 23.3916C84.7578 23.0535 84.7577 22.4567 84.2409 22.4484C83.0825 22.4265 81.9133 22.4863 80.7521 22.4835C80.3344 22.4822 80.1334 23.0614 80.5625 23.1197C81.2248 23.212 81.8807 23.3231 82.5383 23.4274C80.7915 24.2313 79.1796 25.2974 77.3394 25.9508C75.215 26.707 73.0249 27.0935 70.8867 27.0184C66.9472 26.8831 63.7851 25.2578 60.2211 24.2308C60.1136 24.1987 59.9646 24.3532 60.0758 24.4225L60.0793 24.4227Z" fill="#B60053"/>
</svg>
