<svg width="77" height="92" viewBox="0 0 77 92" fill="none" xmlns="http://www.w3.org/2000/svg">
<ellipse cx="34.1605" cy="88.2592" rx="33.8154" ry="2.96627" fill="#E0E0E0"/>
<path d="M76.6551 24.4234L28.8539 15.4355L17.6853 75.0494L65.4865 84.0372L76.6551 24.4234Z" fill="#0070BA"/>
<path d="M74.3374 18.3187L67.1163 70.1135L17.1259 63.1186L25.8171 0.774658L66.4054 6.45316L74.3374 18.3187Z" fill="#E0E0E0"/>
<path d="M33.7184 26.7634C33.4635 27.1345 33.7389 27.6236 34.1449 27.726C34.6004 27.8406 34.9475 27.4105 34.9136 26.9843C34.878 26.5275 34.4865 26.2148 34.0344 26.2694C33.5851 26.3233 33.2808 26.7373 33.3952 27.1835C33.7067 28.397 35.6884 27.2575 34.8997 26.409C34.5998 26.0863 34.035 26.1164 33.8234 26.5197C33.619 26.9087 33.8495 27.4417 34.2988 27.4984C34.7431 27.5552 35.1752 27.1251 35.0441 26.6744C34.9353 26.3005 34.4887 26.1464 34.1416 26.2549C33.7084 26.3901 33.5784 26.9042 33.8495 27.2536C34.1033 27.5808 34.6148 27.6843 34.9286 27.3799C35.2229 27.0945 35.1885 26.5832 34.9208 26.2922C34.5965 25.9394 34.0589 26.0134 33.7656 26.364C33.4507 26.7395 33.5107 27.2864 33.9111 27.5758C34.2871 27.8473 34.8097 27.79 35.0919 27.4139C35.3707 27.0416 35.3324 26.4652 34.9203 26.2054C34.5776 25.9895 34.0883 26.049 33.7912 26.3178C33.4424 26.6338 33.4746 27.1679 33.805 27.4834C34.1494 27.8111 34.6698 27.8595 35.0424 27.558C35.3573 27.3026 34.9247 26.8463 34.6115 27.0995C34.4854 27.2013 34.2249 27.0861 34.1766 26.9437C34.1188 26.7735 34.3321 26.6944 34.4676 26.7039C34.6603 26.7178 34.7081 26.9242 34.572 27.06C34.4071 27.2241 34.0966 27.0138 34.221 26.8024C34.3216 26.6316 34.5837 26.6883 34.5076 26.8964C34.4854 26.9571 34.4498 26.9426 34.3876 26.907C34.3754 26.8998 34.3138 26.8308 34.3299 26.8575C34.3338 26.8636 34.291 26.8452 34.3327 26.853C34.3699 26.8602 34.4099 26.8419 34.4476 26.8625C34.4176 26.8463 34.4721 26.8285 34.4204 26.8602C34.3749 26.8881 34.396 26.8875 34.3876 26.8769C34.3643 26.8469 34.3632 26.7812 34.4087 26.8185C34.4904 26.8853 34.3438 26.9832 34.2727 27.0233C34.1977 27.0661 33.9722 27.1574 33.9983 26.9788C34.0105 26.8947 34.1405 26.8614 34.2144 26.9014C34.2888 26.942 34.3016 27.0249 34.2821 27.1017C34.2743 27.1318 34.3221 27.1145 34.2805 27.1073C34.2766 27.1067 34.2566 27.0923 34.256 27.0884C34.2505 27.0433 34.2232 27.1379 34.2521 27.0962C34.4821 26.7612 33.9478 26.4296 33.719 26.7623L33.7184 26.7634Z" fill="#BEE5ED"/>
<path d="M38.4083 27.972C45.4256 29.161 52.4746 30.1592 59.5458 30.9654C61.5852 31.198 63.6257 31.4144 65.6684 31.6153C66.0122 31.6492 66.0266 31.1112 65.6845 31.0778C58.6044 30.3801 51.5421 29.496 44.5098 28.4177C42.5265 28.1133 40.5449 27.7934 38.5666 27.4585C38.23 27.4017 38.069 27.9153 38.4083 27.9726V27.972Z" fill="#1CA7E3"/>
<path d="M38.9403 26.2382C44.1149 27.1162 49.2805 28.0331 54.4951 28.6401C56.259 28.8454 58.0251 29.0279 59.7918 29.2021C60.4799 29.27 60.5088 28.1945 59.8235 28.1266C54.6328 27.6153 49.4788 26.9437 44.3365 26.0741C42.6426 25.7875 40.9497 25.4965 39.2558 25.2094C38.9676 25.1605 38.681 25.2628 38.5843 25.5655C38.5049 25.8142 38.6538 26.1898 38.9398 26.2382H38.9403Z" fill="#1CA7E3"/>
<path d="M38.1872 29.7892C40.4799 30.2193 42.7886 30.5554 45.1079 30.8002C45.4517 30.8363 45.4661 30.2989 45.124 30.2627C42.8519 30.0229 40.591 29.6963 38.3455 29.2751C38.009 29.2122 37.8485 29.7258 38.1872 29.7892Z" fill="#BEE5ED"/>
<path d="M47.2817 31.2245C49.5744 31.6546 51.8831 31.9907 54.2024 32.2355C54.5462 32.2716 54.5606 31.7342 54.2185 31.698C51.947 31.4582 49.6854 31.1316 47.44 30.7104C47.1034 30.6475 46.9429 31.1611 47.2817 31.2245Z" fill="#1CA7E3"/>
<path d="M31.4428 36.7063C31.1878 37.0774 31.4633 37.5665 31.8693 37.6689C32.3247 37.7835 32.6718 37.3534 32.638 36.9272C32.6024 36.4704 32.2109 36.1577 31.7588 36.2122C31.3095 36.2662 31.0051 36.6802 31.1195 37.1264C31.4311 38.3399 33.4127 37.2004 32.6241 36.3519C32.3242 36.0292 31.7593 36.0592 31.5477 36.4626C31.3434 36.8515 31.5738 37.3845 32.0231 37.4413C32.4675 37.4981 32.8995 37.068 32.7685 36.6173C32.6596 36.2434 32.2131 36.0893 31.866 36.1978C31.4328 36.333 31.3028 36.8471 31.5738 37.1965C31.8276 37.5236 32.3392 37.6271 32.653 37.3228C32.9473 37.0374 32.9129 36.526 32.6452 36.235C32.3208 35.8823 31.7832 35.9563 31.49 36.3068C31.1751 36.6824 31.2351 37.2293 31.6355 37.5186C32.0115 37.7902 32.5341 37.7328 32.8162 37.3567C33.095 36.9845 33.0567 36.4081 32.6446 36.1483C32.302 35.9324 31.8127 35.9919 31.5155 36.2606C31.1667 36.5767 31.199 37.1108 31.5294 37.4263C31.8737 37.754 32.3941 37.8024 32.7668 37.5008C33.0817 37.2455 32.6491 36.7892 32.3358 37.0424C32.2098 37.1442 31.9493 37.029 31.901 36.8866C31.8432 36.7163 32.0565 36.6373 32.192 36.6468C32.3847 36.6607 32.4325 36.8671 32.2964 37.0029C32.1314 37.167 31.821 36.9567 31.9454 36.7453C32.0459 36.5744 32.3081 36.6312 32.232 36.8393C32.2098 36.8999 32.1742 36.8855 32.112 36.8499C32.0998 36.8426 32.0381 36.7736 32.0542 36.8003C32.0581 36.8065 32.0154 36.7881 32.057 36.7959C32.0942 36.8031 32.1342 36.7848 32.172 36.8053C32.142 36.7892 32.1964 36.7714 32.1448 36.8031C32.0992 36.8309 32.1203 36.8304 32.112 36.8198C32.0887 36.7898 32.0876 36.7241 32.1331 36.7614C32.2148 36.8282 32.0681 36.9261 31.997 36.9661C31.9221 37.009 31.6966 37.1002 31.7227 36.9216C31.7349 36.8376 31.8649 36.8042 31.9387 36.8443C32.0131 36.8849 32.0259 36.9678 32.0065 37.0446C31.9987 37.0746 32.0465 37.0574 32.0048 37.0502C32.0009 37.0496 31.9809 37.0351 31.9804 37.0312C31.9748 36.9862 31.9476 37.0808 31.9765 37.039C32.2064 36.7041 31.6721 36.3725 31.4433 36.7052L31.4428 36.7063Z" fill="#BEE5ED"/>
<path d="M36.1326 37.9144C43.1499 39.1034 50.1988 40.1016 57.27 40.9078C59.3094 41.1403 61.3499 41.3568 63.3926 41.5576C63.7364 41.5916 63.7509 41.0536 63.4087 41.0202C56.3287 40.3225 49.2664 39.4384 42.234 38.3601C40.2507 38.0557 38.2691 37.7358 36.2908 37.4009C35.9543 37.3441 35.7932 37.8577 36.1326 37.915V37.9144Z" fill="#1CA7E3"/>
<path d="M36.6645 36.1803C41.839 37.0583 47.0047 37.9752 52.2192 38.5823C53.9831 38.7876 55.7492 38.9701 57.5159 39.1442C58.2041 39.2121 58.2329 38.1366 57.5476 38.0687C52.3569 37.5574 47.2029 36.8858 42.0606 36.0162C40.3667 35.7297 38.6739 35.4387 36.9799 35.1516C36.6917 35.1026 36.4051 35.205 36.3085 35.5077C36.229 35.7564 36.3779 36.1319 36.6639 36.1803H36.6645Z" fill="#1CA7E3"/>
<path d="M35.9115 39.7316C38.2041 40.1617 40.5129 40.4977 42.8322 40.7425C43.176 40.7787 43.1904 40.2412 42.8483 40.2051C40.5762 39.9653 38.3152 39.6387 36.0698 39.2175C35.7332 39.1546 35.5727 39.6682 35.9115 39.7316Z" fill="#BEE5ED"/>
<path d="M45.006 41.1664C47.2986 41.5965 49.6074 41.9325 51.9266 42.1774C52.2704 42.2135 52.2849 41.6761 51.9428 41.6399C49.6707 41.4001 47.4097 41.0735 45.1643 40.6523C44.8277 40.5894 44.6672 41.103 45.006 41.1664Z" fill="#1CA7E3"/>
<path d="M29.9359 46.4651C29.681 46.8362 29.9565 47.3253 30.3625 47.4277C30.8179 47.5423 31.165 47.1122 31.1311 46.686C31.0956 46.2292 30.704 45.9165 30.2519 45.971C29.8026 46.025 29.4983 46.4389 29.6127 46.8852C29.9243 48.0987 31.9059 46.9592 31.1172 46.1107C30.8173 45.788 30.2525 45.818 30.0409 46.2214C29.8365 46.6103 30.067 47.1433 30.5163 47.2001C30.9606 47.2568 31.3927 46.8268 31.2616 46.3761C31.1528 46.0022 30.7063 45.8481 30.3591 45.9566C29.9259 46.0918 29.796 46.6059 30.067 46.9553C30.3208 47.2824 30.8323 47.3859 31.1461 47.0816C31.4405 46.7962 31.406 46.2848 31.1383 45.9938C30.814 45.6411 30.2764 45.7151 29.9831 46.0656C29.6682 46.4412 29.7282 46.9881 30.1287 47.2774C30.5046 47.5489 31.0273 47.4916 31.3094 47.1155C31.5882 46.7433 31.5499 46.1669 31.1378 45.907C30.7951 45.6912 30.3058 45.7507 30.0087 46.0194C29.6599 46.3355 29.6921 46.8696 30.0226 47.1851C30.3669 47.5128 30.8873 47.5612 31.26 47.2596C31.5749 47.0042 31.1422 46.548 30.829 46.8012C30.7029 46.903 30.4424 46.7878 30.3941 46.6454C30.3364 46.4751 30.5496 46.3961 30.6851 46.4056C30.8779 46.4195 30.9256 46.6259 30.7896 46.7617C30.6246 46.9258 30.3141 46.7155 30.4386 46.504C30.5391 46.3332 30.8012 46.39 30.7251 46.5981C30.7029 46.6587 30.6674 46.6443 30.6052 46.6086C30.593 46.6014 30.5313 46.5324 30.5474 46.5591C30.5513 46.5652 30.5085 46.5469 30.5502 46.5547C30.5874 46.5619 30.6274 46.5435 30.6652 46.5641C30.6352 46.548 30.6896 46.5302 30.6379 46.5619C30.5924 46.5897 30.6135 46.5892 30.6052 46.5786C30.5818 46.5486 30.5807 46.4829 30.6263 46.5202C30.7079 46.5869 30.5613 46.6849 30.4902 46.7249C30.4152 46.7678 30.1897 46.859 30.2158 46.6804C30.2281 46.5964 30.358 46.563 30.4319 46.6031C30.5063 46.6437 30.5191 46.7266 30.4996 46.8034C30.4919 46.8334 30.5396 46.8162 30.498 46.8089C30.4941 46.8084 30.4741 46.7939 30.4735 46.79C30.468 46.745 30.4408 46.8395 30.4697 46.7978C30.6996 46.4629 30.1653 46.1313 29.9365 46.464L29.9359 46.4651Z" fill="#BEE5ED"/>
<path d="M34.6251 47.6738C39.1043 48.4333 43.573 49.1716 48.0927 49.6423C49.7594 49.8159 51.4272 49.9789 53.0951 50.1425C53.4389 50.1765 53.4533 49.6384 53.1112 49.6051C48.5925 49.1611 44.0884 48.702 39.6064 47.9693C37.9974 47.7061 36.3907 47.4324 34.7834 47.1597C34.4468 47.1024 34.2858 47.6165 34.6251 47.6738Z" fill="#1CA7E3"/>
<path d="M35.1576 45.9399C38.6104 46.5263 42.041 47.2379 45.5261 47.6057C47.0384 47.7654 48.5524 47.9111 50.0658 48.0603C50.7539 48.1281 50.7828 47.0526 50.0975 46.9848C47.9426 46.7728 45.7816 46.5875 43.6339 46.3093C43.3467 46.272 43.0602 46.232 42.7736 46.1886C42.6364 46.168 42.4992 46.1463 42.362 46.124C42.2149 46.1001 42.3615 46.124 42.2726 46.109C42.1854 46.0945 42.0982 46.0795 42.011 46.0645C41.2829 45.9393 40.5565 45.8041 39.8295 45.6728C38.3788 45.4107 36.927 45.1576 35.4736 44.9111C35.1853 44.8621 34.8988 44.9645 34.8021 45.2672C34.7227 45.5159 34.8715 45.8915 35.1576 45.9399Z" fill="#1CA7E3"/>
<path d="M34.4044 49.4911C36.697 49.9212 39.0058 50.2573 41.3251 50.5021C41.6689 50.5382 41.6833 50.0008 41.3412 49.9646C39.0691 49.7248 36.8081 49.3982 34.5627 48.977C34.2261 48.9141 34.0656 49.4277 34.4044 49.4911Z" fill="#BEE5ED"/>
<path d="M43.4985 50.9257C45.7912 51.3558 48.0999 51.6918 50.4192 51.9366C50.763 51.9728 50.7774 51.4353 50.4353 51.3992C48.1632 51.1594 45.9022 50.8328 43.6568 50.4116C43.3202 50.3487 43.1597 50.8622 43.4985 50.9257Z" fill="#1CA7E3"/>
<path d="M65.8422 6.50747C65.1291 10.0244 64.5648 13.5708 64.1522 17.1356C64.1444 17.2035 64.2055 17.297 64.2755 17.3087C67.5195 17.8573 70.7863 18.2523 74.068 18.4882C74.293 18.5043 74.303 18.1533 74.0786 18.1371C70.829 17.9034 67.5917 17.5162 64.3788 16.9726C64.4199 17.0305 64.461 17.0878 64.5026 17.1456C64.9119 13.6114 65.4706 10.0967 66.1771 6.6104C66.2215 6.39063 65.8872 6.28547 65.8422 6.50692V6.50747Z" fill="#BEE5ED"/>
<path d="M53.1974 61.9041L55.5856 62.8705C58.1465 63.9065 59.8226 66.3958 59.8226 69.1622V85.8872C59.8226 86.4926 59.3328 86.9833 58.7285 86.9833H1.43921C0.834944 86.9833 0.345093 86.4926 0.345093 85.8872V14.3595C0.345093 13.7542 0.834944 13.2634 1.43921 13.2634H47.4408C48.0451 13.2634 48.5349 13.7542 48.5349 14.3595V54.9804C48.5349 58.0249 50.3794 60.7646 53.1974 61.9041Z" fill="#D9357F"/>
<path d="M40.5102 22.5593H9.61233C9.11787 22.5593 8.71704 22.9609 8.71704 23.4562V35.6139C8.71704 36.1092 9.11787 36.5108 9.61233 36.5108H40.5102C41.0046 36.5108 41.4055 36.1092 41.4055 35.6139V23.4562C41.4055 22.9609 41.0046 22.5593 40.5102 22.5593Z" fill="#E0E0E0"/>
<path d="M12.9612 30.4851C19.4693 30.6971 25.9812 30.726 32.4875 30.5719C34.3636 30.5274 36.2397 30.4673 38.1153 30.3933C38.4313 30.3811 38.3735 29.8742 38.0592 29.8864C31.5584 30.1441 25.0498 30.2231 18.5423 30.1168C16.7068 30.0867 14.8718 30.0417 13.0368 29.9816C12.7246 29.9716 12.6458 30.4746 12.9612 30.4846V30.4851Z" fill="#1CA7E3"/>
<path d="M13.3828 27.9053C19.1899 28.0666 24.9943 28.2725 30.8042 28.1312C32.7692 28.0833 34.7336 28.0099 36.6974 27.9275C37.4622 27.8952 37.3278 26.7118 36.5663 26.7441C30.7975 26.9872 25.0448 27.0484 19.2732 26.8915C17.3722 26.8398 15.4716 26.783 13.5711 26.7296C13.2478 26.7207 12.949 26.8771 12.8902 27.2237C12.8413 27.5086 13.0629 27.8969 13.3834 27.9058L13.3828 27.9053Z" fill="#1CA7E3"/>
<path d="M13.0001 32.6409C15.2083 32.7405 17.4199 32.7505 19.6292 32.6726C19.9563 32.6609 19.8991 32.1546 19.5731 32.1657C17.4093 32.2419 15.2433 32.2347 13.0801 32.1368C12.7563 32.1223 12.673 32.6253 12.9996 32.6403L13.0001 32.6409Z" fill="#1CA7E3"/>
<path d="M21.7253 32.7825C23.934 32.8821 26.145 32.8921 28.3544 32.8142C28.6815 32.8025 28.6243 32.2962 28.2983 32.3073C26.1345 32.3835 23.9685 32.3763 21.8058 32.2784C21.482 32.2639 21.3987 32.7669 21.7253 32.7819V32.7825Z" fill="#1CA7E3"/>
</svg>
