<svg width="63" height="54" viewBox="0 0 63 54" fill="none" xmlns="http://www.w3.org/2000/svg">
<g clip-path="url(#clip0_81_42013)">
<ellipse cx="33.1311" cy="51.227" rx="29.6309" ry="2.58722" fill="#E0E0E0"/>
<path d="M15.0541 36.1865L59.7101 27.9792V10.1272L9.77417 7.06042L15.0541 36.1865Z" fill="#EDEDED"/>
<path d="M56.875 12.1935L22.4999 10.1248L52.5 15.6774L56.875 23.5161V12.1935Z" fill="#D9357F" stroke="#D9357F"/>
<path d="M15.0541 36.1865L15.0512 36.1885C15.001 36.1964 14.9558 36.2162 14.9076 36.23L15.4769 39.4498C15.533 39.4468 15.589 39.4468 15.645 39.4359L61.652 30.9798C62.4337 30.8357 63.001 30.1536 63.001 29.3561V8.57556C63.001 7.703 62.3235 6.98047 61.4563 6.92619L9.57167 3.73996C9.43501 3.73207 9.30129 3.7449 9.17249 3.76957L9.75259 7.05845L9.77422 7.06043L59.7101 10.1272V27.9782L15.0541 36.1856V36.1865Z" fill="#0070BA"/>
<path d="M22.1708 47.6226H49.0275C49.3873 46.1835 50.3529 44.9872 51.6379 44.3199H19.5613C20.8444 44.9872 21.8089 46.1835 22.1708 47.6226Z" fill="#0070BA"/>
<path d="M56.3112 44.3199C57.5952 44.9872 58.5598 46.1835 58.9216 47.6226H60.4033C61.3118 47.6226 62.0492 46.8823 62.0492 45.9703C62.0492 45.0582 61.3118 44.3199 60.4033 44.3199H56.3112Z" fill="#0070BA"/>
<path d="M14.9075 36.2309L9.75349 7.05938L9.17338 3.7705L8.84007 1.89212C8.71225 1.16071 8.11249 0.605985 7.37704 0.536891L1.8002 0.00881485C0.895632 -0.0770593 0.094305 0.590192 0.00876463 1.49829C-0.0767758 2.40539 0.5869 3.21083 1.49343 3.29572L5.82256 3.70634L13.239 45.678C13.9823 44.7443 15.0403 44.077 16.2536 43.8421L15.4768 39.4497L14.9075 36.2299V36.2309Z" fill="#0070BA"/>
<path d="M49.7107 48.8732C49.7107 51.2352 51.6181 53.1521 53.971 53.1521C56.3238 53.1521 58.2362 51.2352 58.2362 48.8732C58.2362 46.5112 56.3278 44.5933 53.971 44.5933C51.6142 44.5933 49.7107 46.5102 49.7107 48.8732ZM56.0259 48.8732C56.0259 50.0093 55.1056 50.9342 53.972 50.9342C52.8383 50.9342 51.921 50.0093 51.921 48.8732C51.921 47.7371 52.8432 46.8122 53.972 46.8122C55.1007 46.8122 56.0259 47.7361 56.0259 48.8732Z" fill="#0070BA"/>
<path d="M56.3112 44.3199C55.6091 43.9557 54.8167 43.7455 53.9711 43.7455C53.1255 43.7455 52.337 43.9567 51.6369 44.3199C50.3528 44.9872 49.3873 46.1835 49.0265 47.6226C48.9252 48.0234 48.8662 48.4399 48.8662 48.8732C48.8662 51.7002 51.1561 54 53.9711 54C56.7861 54 59.0799 51.7011 59.0799 48.8732C59.0799 48.4399 59.02 48.0234 58.9206 47.6226C58.5588 46.1835 57.5943 44.9872 56.3102 44.3199H56.3112ZM53.9711 53.1521C51.6182 53.1521 49.7108 51.2353 49.7108 48.8732C49.7108 46.5112 51.6182 44.5933 53.9711 44.5933C56.324 44.5933 58.2363 46.5102 58.2363 48.8732C58.2363 51.2362 56.3279 53.1521 53.9711 53.1521Z" fill="white"/>
<path d="M51.92 48.8732C51.92 50.0093 52.8423 50.9342 53.971 50.9342C55.0998 50.9342 56.025 50.0093 56.025 48.8732C56.025 47.7371 55.1047 46.8122 53.971 46.8122C52.8374 46.8122 51.92 47.7361 51.92 48.8732Z" fill="#D9357F"/>
<path d="M12.9618 48.8732C12.9618 51.2352 14.8692 53.1521 17.2241 53.1521C19.5789 53.1521 21.4863 51.2352 21.4863 48.8732C21.4863 46.5112 19.5779 44.5933 17.2241 44.5933C14.8702 44.5933 12.9618 46.5102 12.9618 48.8732ZM19.276 48.8732C19.276 50.0093 18.3567 50.9342 17.2241 50.9342C16.0914 50.9342 15.1701 50.0093 15.1701 48.8732C15.1701 47.7371 16.0914 46.8122 17.2241 46.8122C18.3567 46.8122 19.276 47.7361 19.276 48.8732Z" fill="#0070BA"/>
<path d="M19.5612 44.3199C18.8591 43.9557 18.0657 43.7455 17.224 43.7455C16.8927 43.7455 16.5672 43.781 16.2526 43.8422C15.0393 44.0771 13.9814 44.7444 13.2381 45.6781C12.537 46.5546 12.1182 47.6651 12.1182 48.8732C12.1182 51.7002 14.4081 54 17.225 54C20.042 54 22.3319 51.7011 22.3319 48.8732C22.3319 48.4399 22.2729 48.0234 22.1706 47.6226C21.8088 46.1835 20.8443 44.9872 19.5612 44.3199ZM17.224 53.1521C14.8692 53.1521 12.9618 51.2353 12.9618 48.8732C12.9618 46.5112 14.8692 44.5933 17.224 44.5933C19.5789 44.5933 21.4863 46.5102 21.4863 48.8732C21.4863 51.2362 19.5779 53.1521 17.224 53.1521Z" fill="white"/>
<path d="M15.1702 48.8732C15.1702 50.0093 16.0914 50.9342 17.2241 50.9342C18.3568 50.9342 19.2761 50.0093 19.2761 48.8732C19.2761 47.7371 18.3568 46.8122 17.2241 46.8122C16.0914 46.8122 15.1702 47.7361 15.1702 48.8732Z" fill="#D9357F"/>
</g>
<defs>
<clipPath id="clip0_81_42013">
<rect width="63" height="54" fill="white"/>
</clipPath>
</defs>
</svg>
