<svg width="34" height="31" viewBox="0 0 34 31" fill="none" xmlns="http://www.w3.org/2000/svg">
<g clip-path="url(#clip0_339_7805)">
<ellipse cx="17.8428" cy="29.7515" rx="16.5835" ry="1.5445" fill="#E0E0E0"/>
<path d="M25.482 19.147C27.4478 14.2052 25.2466 8.5166 20.5655 6.44126C15.8845 4.36593 10.4961 6.6897 8.53026 11.6316C6.56444 16.5734 8.76559 22.262 13.4467 24.3373C18.1278 26.4127 23.5161 24.0889 25.482 19.147Z" fill="#D9357F"/>
<path d="M14.0109 17.2545C14.4295 17.4532 14.8141 17.5971 15.1646 17.6879C15.5152 17.7787 15.8154 17.8233 16.0685 17.8233C16.2908 17.8233 16.4807 17.7667 16.6381 17.6502C16.7955 17.5354 16.875 17.3761 16.875 17.174C16.875 17.1243 16.8702 17.0746 16.8588 17.0215C16.8474 16.9701 16.8312 16.9204 16.8101 16.8759C16.789 16.8313 16.7549 16.7731 16.7079 16.7029C16.6608 16.6326 16.6203 16.5795 16.5862 16.5435C16.5521 16.5076 16.4158 16.3671 16.1756 16.1238C15.4924 15.4266 15.0381 14.9332 14.8109 14.6436C14.6356 14.4192 14.5009 14.1674 14.4036 13.8898C14.3078 13.6123 14.2591 13.3416 14.2591 13.0761C14.2591 12.8688 14.2884 12.6649 14.3452 12.4645C14.4036 12.2641 14.488 12.0739 14.5983 11.894C14.7086 11.7141 14.8433 11.5514 14.9991 11.4075C15.1549 11.2636 15.3253 11.1454 15.5119 11.0529C15.6969 10.9603 15.9744 10.8644 16.3411 10.7651C16.3493 10.6211 16.3541 10.5355 16.3541 10.5081L16.3476 10.0678V9.29688C16.8134 9.30544 17.1996 9.31058 17.5079 9.31058C17.8503 9.31058 18.2333 9.30715 18.6617 9.29688C18.6406 9.79712 18.6292 10.0901 18.6292 10.1757V10.7565C19.0528 10.8199 19.4682 10.9124 19.8787 11.034C19.908 11.7621 19.9485 12.5176 20.0005 13.3005C19.6548 13.1343 19.3351 13.0144 19.043 12.9425C18.7509 12.8705 18.5075 12.8345 18.316 12.8345C18.0986 12.8345 17.9185 12.8877 17.774 12.9939C17.6312 13.1001 17.5598 13.2371 17.5598 13.4033C17.5598 13.5472 17.602 13.6826 17.6848 13.8093C17.7675 13.9361 17.886 14.0749 18.0402 14.2291C18.5951 14.779 19.0041 15.2193 19.267 15.5482C19.5299 15.8771 19.7149 16.1906 19.8203 16.4853C19.9274 16.7799 19.981 17.0729 19.981 17.3607C19.981 17.6005 19.9518 17.8233 19.895 18.034C19.8366 18.243 19.7522 18.4366 19.6418 18.613C19.5315 18.7895 19.4033 18.9471 19.2572 19.0859C19.1112 19.2263 18.9619 19.3445 18.8094 19.4439C18.6552 19.5433 18.4296 19.658 18.131 19.7882L18.1181 20.6465C18.1181 20.9309 18.1197 21.205 18.1246 21.4723C17.6588 21.4637 17.2888 21.4586 17.0162 21.4586C16.7436 21.4586 16.3395 21.4637 15.8056 21.4723C15.8267 21.1571 15.8381 20.7579 15.8381 20.2748V19.9973C15.4924 19.9476 15.202 19.8962 14.9699 19.8414C14.7379 19.7865 14.4523 19.7009 14.1147 19.5844C14.0855 18.452 14.0514 17.6742 14.0125 17.2511L14.0109 17.2545Z" fill="#EDEDED"/>
<path d="M4.0748 15.3876H2.42932C2.42932 6.90231 8.96903 0 17.0049 0C22.1929 0 27.0303 2.94834 29.6299 7.69379L28.2068 8.56407C25.8992 4.35313 21.607 1.73714 17.0049 1.73714C9.87452 1.73714 4.07317 7.86168 4.07317 15.3893L4.0748 15.3876Z" fill="#0070BA"/>
<path d="M3.29419 17.7331L0 14.3445L1.14729 13.1007L3.26336 15.2782L5.32588 13.0425L6.504 14.2554L3.29419 17.7331Z" fill="#0070BA"/>
<path d="M16.9934 30.8937C11.8055 30.8937 6.96806 27.9453 4.36841 23.1999L5.79156 22.3296C8.09912 26.5406 12.3913 29.1565 16.9934 29.1565C24.1238 29.1565 29.9252 23.032 29.9252 15.5044H31.5707C31.5707 23.9897 25.0326 30.892 16.9951 30.892L16.9934 30.8937Z" fill="#0070BA"/>
<path d="M30.7041 13.1606L33.9999 16.5493L32.851 17.793L30.7349 15.6156L28.6724 17.8496L27.4943 16.6384L30.7041 13.1606Z" fill="#0070BA"/>
</g>
<defs>
<clipPath id="clip0_339_7805">
<rect width="34" height="30.8934" fill="white"/>
</clipPath>
</defs>
</svg>
