<svg width="81" height="73" viewBox="0 0 81 73" fill="none" xmlns="http://www.w3.org/2000/svg">
<ellipse cx="40.0096" cy="69.4902" rx="40.0096" ry="3.50962" fill="#E0E0E0"/>
<path d="M66.0229 8.40901H14.951C14.447 8.40901 14.0385 8.81755 14.0385 9.32151V69.0552C14.0385 69.5591 14.447 69.9677 14.951 69.9677H66.0229C66.5268 69.9677 66.9354 69.5591 66.9354 69.0552V9.32151C66.9354 8.81755 66.5268 8.40901 66.0229 8.40901Z" fill="#0070BA"/>
<path d="M60.3374 13.0978H21.3245C20.8205 13.0978 20.412 13.5063 20.412 14.0103V61.6147C20.412 62.1186 20.8205 62.5272 21.3245 62.5272H60.3374C60.8413 62.5272 61.2499 62.1186 61.2499 61.6147V14.0103C61.2499 13.5063 60.8413 13.0978 60.3374 13.0978Z" fill="#EDEDED"/>
<path d="M55.7046 5.62942H46.9586C46.5094 2.45673 43.7859 0 40.4869 0C37.1878 0 34.4644 2.45673 34.0152 5.62942H25.2692C24.7638 5.62942 24.3567 6.03654 24.3567 6.54192V16.2004C24.3567 16.7058 24.7638 17.1129 25.2692 17.1129H55.7046C56.21 17.1129 56.6171 16.7058 56.6171 16.2004V6.54192C56.6171 6.03654 56.21 5.62942 55.7046 5.62942Z" fill="#D9357F"/>
<path d="M30.4074 22.9248C30.4074 24.2725 29.3124 25.3675 27.9647 25.3675C26.617 25.3675 25.522 24.2725 25.522 22.9248C25.522 21.5771 26.617 20.4821 27.9647 20.4821C29.3124 20.4821 30.4074 21.5771 30.4074 22.9248Z" fill="#B1DBF6"/>
<path d="M54.3288 23.8232H34.6188C34.1134 23.8232 33.7063 23.4161 33.7063 22.9107C33.7063 22.4054 34.1134 21.9982 34.6188 21.9982H54.3288C54.8342 21.9982 55.2413 22.4054 55.2413 22.9107C55.2413 23.4161 54.8342 23.8232 54.3288 23.8232Z" fill="#B1DBF6"/>
<path d="M30.4074 30.8144C30.4074 32.1621 29.3124 33.2571 27.9647 33.2571C26.617 33.2571 25.522 32.1621 25.522 30.8144C25.522 29.4667 26.617 28.3717 27.9647 28.3717C29.3124 28.3717 30.4074 29.4667 30.4074 30.8144Z" fill="#B1DBF6"/>
<path d="M54.3288 31.7269H34.6188C34.1134 31.7269 33.7063 31.3198 33.7063 30.8144C33.7063 30.309 34.1134 29.9019 34.6188 29.9019H54.3288C54.8342 29.9019 55.2413 30.309 55.2413 30.8144C55.2413 31.3198 54.8342 31.7269 54.3288 31.7269Z" fill="#B1DBF6"/>
<path d="M30.4074 38.704C30.4074 40.0516 29.3124 41.1466 27.9647 41.1466C26.617 41.1466 25.522 40.0516 25.522 38.704C25.522 37.3563 26.617 36.2613 27.9647 36.2613C29.3124 36.2613 30.4074 37.3563 30.4074 38.704Z" fill="#B1DBF6"/>
<path d="M54.3288 39.6166H34.6188C34.1134 39.6166 33.7063 39.2095 33.7063 38.7041C33.7063 38.1987 34.1134 37.7916 34.6188 37.7916H54.3288C54.8342 37.7916 55.2413 38.1987 55.2413 38.7041C55.2413 39.2095 54.8342 39.6166 54.3288 39.6166Z" fill="#B1DBF6"/>
<path d="M30.4074 46.6076C30.4074 47.9553 29.3124 49.0503 27.9647 49.0503C26.617 49.0503 25.522 47.9553 25.522 46.6076C25.522 45.2599 26.617 44.1649 27.9647 44.1649C29.3124 44.1649 30.4074 45.2599 30.4074 46.6076Z" fill="#B1DBF6"/>
<path d="M54.3288 47.5062H34.6188C34.1134 47.5062 33.7063 47.0991 33.7063 46.5937C33.7063 46.0883 34.1134 45.6812 34.6188 45.6812H54.3288C54.8342 45.6812 55.2413 46.0883 55.2413 46.5937C55.2413 47.0991 54.8342 47.5062 54.3288 47.5062Z" fill="#B1DBF6"/>
<path d="M68.4809 51.4871C68.4461 51.2901 68.3303 51.1163 68.168 51.012L65.2133 48.9726C64.8773 48.7409 64.4022 48.822 64.1704 49.158L55.6538 61.4985C55.5379 61.6607 55.5031 61.8693 55.5379 62.0547C55.5726 62.2517 55.6885 62.4255 55.8507 62.5298L58.8055 64.5692C58.933 64.6619 59.0836 64.6966 59.2342 64.6966C59.4776 64.6966 59.7093 64.5807 59.8484 64.3722L68.365 52.0201C68.4809 51.8579 68.5157 51.6609 68.4809 51.4639V51.4871Z" fill="#FEBFDC"/>
<path d="M78.3996 33.0169C77.6812 32.5302 76.8237 32.3448 75.9779 32.4955C75.1204 32.6461 74.3904 33.1328 73.8921 33.8396L63.6026 48.7525C63.4867 48.9147 63.452 49.1117 63.4867 49.3086C63.5215 49.5056 63.6374 49.6794 63.7996 49.7837L67.9015 52.611C68.029 52.7037 68.1796 52.7385 68.3302 52.7385C68.5736 52.7385 68.8053 52.6226 68.9444 52.414L79.2339 37.5012C80.2536 36.0296 79.8828 34.0134 78.4112 32.9937L78.3996 33.0169Z" fill="#D9357F"/>
<path d="M74.7612 48.2659C74.6105 48.2659 74.4715 48.2196 74.3325 48.1385C73.9964 47.9067 73.9037 47.4432 74.1471 47.0956L78.7356 40.4445L77.6117 37.8605C77.4494 37.4781 77.6117 37.0378 78.0056 36.8756C78.388 36.7134 78.8283 36.8756 78.9905 37.2696L80.2767 40.2359C80.381 40.4677 80.3578 40.7458 80.2072 40.9543L75.3869 47.9415C75.2478 48.15 75.0045 48.2659 74.7728 48.2659H74.7612Z" fill="#D9357F"/>
<path d="M55.6537 61.5217L53.3015 69.4127L59.8483 64.4069L55.6537 61.5217Z" fill="#D9357F"/>
</svg>
