<svg width="62" height="60" viewBox="0 0 62 60" fill="none" xmlns="http://www.w3.org/2000/svg">
<ellipse cx="31" cy="57.2971" rx="31" ry="2.70288" fill="#E0E0E0"/>
<path d="M41.1881 29.8343C45.665 26.9169 48.6322 21.9323 48.6322 16.2733C48.6322 7.30099 41.1881 0 32.04 0C22.8919 0 15.4479 7.30099 15.4479 16.2733C15.4479 21.9323 18.4075 26.9169 22.8919 29.8343C12.7498 33.4995 5.49255 43.0436 5.49255 54.2443V56.414H58.5875V54.2443C58.5875 43.0436 51.3303 33.4995 41.1881 29.8343ZM19.8724 16.2733C19.8724 9.69067 25.3284 4.33954 32.04 4.33954C38.7516 4.33954 44.2076 9.69067 44.2076 16.2733C44.2076 22.8559 38.7516 28.207 32.04 28.207C25.3284 28.207 19.8724 22.8559 19.8724 16.2733ZM10.0292 52.0745C11.1429 41.123 20.5899 32.5466 32.04 32.5466C43.4901 32.5466 52.9372 41.123 54.0508 52.0745H10.0292Z" fill="#2082C3"/>
<path d="M19.8724 16.2733C19.8724 9.69067 25.3284 4.33954 32.04 4.33954C38.7516 4.33954 44.2076 9.69067 44.2076 16.2733C44.2076 22.8559 38.7516 28.207 32.04 28.207C25.3284 28.207 19.8724 22.8559 19.8724 16.2733Z" fill="#EDEDED"/>
<path d="M10.0292 52.0745C11.1429 41.123 20.5899 32.5466 32.04 32.5466C43.4901 32.5466 52.9372 41.123 54.0508 52.0745H10.0292Z" fill="#EDEDED"/>
<path d="M53.0949 50.9547L32.9554 50.9547C37.8377 50.0448 51.4134 50.3768 49.4332 47.3151C44.9926 40.4493 41.6158 37.0197 40.1626 35.7441C39.0743 35.0075 39.1666 34.8699 40.1626 35.7441C40.4325 35.9268 40.775 36.1463 41.1943 36.3964C46.8462 39.7669 52.4846 46.4052 53.0949 50.9547Z" fill="#D9357F"/>
</svg>
