<svg width="34" height="31" viewBox="0 0 34 31" fill="none" xmlns="http://www.w3.org/2000/svg">
<ellipse cx="16.9319" cy="29.4081" rx="16.9319" ry="1.48526" fill="#E0E0E0"/>
<path d="M27.9406 3.55859H6.32709C6.11381 3.55859 5.94092 3.73149 5.94092 3.94476V29.2238C5.94092 29.4371 6.11381 29.61 6.32709 29.61H27.9406C28.1538 29.61 28.3267 29.4371 28.3267 29.2238V3.94476C28.3267 3.73149 28.1538 3.55859 27.9406 3.55859Z" fill="#0070BA"/>
<path d="M25.5345 6H9.02435C8.81108 6 8.63818 6.17289 8.63818 6.38617V26.5322C8.63818 26.7455 8.81108 26.9184 9.02435 26.9184H25.5345C25.7477 26.9184 25.9206 26.7455 25.9206 26.5322V6.38617C25.9206 6.17289 25.7477 6 25.5345 6Z" fill="#EDEDED"/>
<path d="M23.5739 2.38235H19.8727C19.6826 1.03968 18.53 0 17.1339 0C15.7377 0 14.5852 1.03968 14.395 2.38235H10.6938C10.4799 2.38235 10.3076 2.55464 10.3076 2.76852V6.85595C10.3076 7.06983 10.4799 7.24212 10.6938 7.24212H23.5739C23.7878 7.24212 23.9601 7.06983 23.9601 6.85595V2.76852C23.9601 2.55464 23.7878 2.38235 23.5739 2.38235Z" fill="#D9357F"/>
<path d="M14 17.1894C14.4194 17.3689 14.8047 17.4989 15.1558 17.581C15.5069 17.663 15.8076 17.7033 16.0612 17.7033C16.2839 17.7033 16.4741 17.6522 16.6318 17.5469C16.7895 17.4432 16.8691 17.2993 16.8691 17.1166C16.8691 17.0718 16.8643 17.0269 16.8529 16.9789C16.8415 16.9325 16.8253 16.8876 16.8041 16.8473C16.783 16.8071 16.7488 16.7545 16.7017 16.691C16.6546 16.6276 16.6139 16.5796 16.5798 16.5471C16.5457 16.5146 16.4091 16.3876 16.1685 16.1679C15.4842 15.5379 15.029 15.0922 14.8014 14.8306C14.6258 14.6278 14.4909 14.4003 14.3934 14.1496C14.2975 13.8988 14.2487 13.6543 14.2487 13.4144C14.2487 13.2271 14.278 13.0429 14.3349 12.8618C14.3934 12.6807 14.4779 12.5089 14.5885 12.3464C14.699 12.1839 14.8339 12.0369 14.99 11.9069C15.146 11.7768 15.3167 11.67 15.5037 11.5865C15.689 11.5029 15.9669 11.4162 16.3343 11.3264C16.3425 11.1964 16.3473 11.119 16.3473 11.0943L16.3408 10.6965V10C16.8074 10.0077 17.1943 10.0124 17.5031 10.0124C17.8461 10.0124 18.2297 10.0093 18.6589 10C18.6378 10.4519 18.6264 10.7166 18.6264 10.794V11.3187C19.0507 11.376 19.4668 11.4595 19.8781 11.5694C19.9073 12.2272 19.948 12.9098 20 13.6171C19.6538 13.467 19.3335 13.3587 19.0409 13.2937C18.7483 13.2286 18.5045 13.1961 18.3127 13.1961C18.0948 13.1961 17.9144 13.2441 17.7697 13.3401C17.6267 13.436 17.5551 13.5599 17.5551 13.71C17.5551 13.84 17.5974 13.9623 17.6803 14.0768C17.7632 14.1914 17.8819 14.3167 18.0363 14.456C18.5923 14.9529 19.0019 15.3506 19.2652 15.6478C19.5286 15.945 19.7139 16.2282 19.8196 16.4944C19.9268 16.7607 19.9805 17.0253 19.9805 17.2854C19.9805 17.502 19.9512 17.7033 19.8943 17.8936C19.8358 18.0825 19.7513 18.2574 19.6407 18.4168C19.5302 18.5762 19.4018 18.7186 19.2555 18.844C19.1092 18.9709 18.9596 19.0777 18.8068 19.1674C18.6524 19.2572 18.4264 19.3609 18.1273 19.4785L18.1143 20.254C18.1143 20.5109 18.116 20.7585 18.1208 21C17.6543 20.9923 17.2837 20.9876 17.0106 20.9876C16.7375 20.9876 16.3327 20.9923 15.7979 21C15.819 20.7152 15.8304 20.3546 15.8304 19.9181V19.6674C15.4842 19.6225 15.1932 19.5761 14.9607 19.5265C14.7283 19.477 14.4422 19.3996 14.104 19.2944C14.0748 18.2713 14.0406 17.5686 14.0016 17.1863L14 17.1894Z" fill="#D9357F"/>
</svg>
