<svg width="25" height="29" viewBox="0 0 25 29" fill="none" xmlns="http://www.w3.org/2000/svg">
<ellipse cx="12.5" cy="26.0423" rx="12.5" ry="2.63158" fill="#E0E0E0"/>
<g clip-path="url(#clip0_264_150)">
<path d="M22.8347 26.147H2.70393C1.71442 26.147 0.912109 25.3319 0.912109 24.3267V9.15813L1.29366 8.65771H24.227L24.6269 9.15813V24.3267C24.6269 25.3319 23.8245 26.147 22.835 26.147H22.8347Z" fill="#DF1B74"/>
<path d="M22.835 2.89348H2.70393C1.71442 2.89348 0.912109 3.70851 0.912109 4.7137V9.15813H24.6266V4.7137C24.6266 3.70851 23.8243 2.89319 22.8347 2.89319L22.835 2.89348ZM5.61693 5.60549C5.06393 5.60549 4.61569 5.14986 4.61569 4.58809C4.61569 4.02632 5.06393 3.57097 5.61693 3.57097C6.16993 3.57097 6.61846 4.02632 6.61846 4.58809C6.61846 5.14986 6.16993 5.60549 5.61693 5.60549ZM10.3853 5.60549C9.83229 5.60549 9.38377 5.14986 9.38377 4.58809C9.38377 4.02632 9.83229 3.57097 10.3853 3.57097C10.9383 3.57097 11.3865 4.02632 11.3865 4.58809C11.3865 5.14986 10.9383 5.60549 10.3853 5.60549ZM15.1537 5.60549C14.6007 5.60549 14.1524 5.14986 14.1524 4.58809C14.1524 4.02632 14.6007 3.57097 15.1537 3.57097C15.7067 3.57097 16.1552 4.02632 16.1552 4.58809C16.1552 5.14986 15.7067 5.60549 15.1537 5.60549ZM19.922 5.60549C19.369 5.60549 18.9205 5.14986 18.9205 4.58809C18.9205 4.02632 19.369 3.57097 19.922 3.57097C20.475 3.57097 20.9233 4.02632 20.9233 4.58809C20.9233 5.14986 20.475 5.60549 19.922 5.60549Z" fill="#0070BA"/>
<path d="M6.26855 1.27042C6.26855 0.904762 5.97682 0.608337 5.61694 0.608337C5.25707 0.608337 4.96533 0.904762 4.96533 1.27042V4.49128C4.96533 4.85694 5.25707 5.15337 5.61694 5.15337C5.97682 5.15337 6.26855 4.85694 6.26855 4.49128V1.27042Z" fill="#0070BA"/>
<path d="M11.0366 1.27042C11.0366 0.904762 10.7449 0.608337 10.385 0.608337C10.0251 0.608337 9.7334 0.904762 9.7334 1.27042V4.49128C9.7334 4.85694 10.0251 5.15337 10.385 5.15337C10.7449 5.15337 11.0366 4.85694 11.0366 4.49128V1.27042Z" fill="#0070BA"/>
<path d="M15.8052 1.27042C15.8052 0.904762 15.5134 0.608337 15.1536 0.608337C14.7937 0.608337 14.502 0.904762 14.502 1.27042V4.49128C14.502 4.85694 14.7937 5.15337 15.1536 5.15337C15.5134 5.15337 15.8052 4.85694 15.8052 4.49128V1.27042Z" fill="#0070BA"/>
<path d="M20.5737 1.27042C20.5737 0.904762 20.282 0.608337 19.9221 0.608337C19.5622 0.608337 19.2705 0.904762 19.2705 1.27042V4.49128C19.2705 4.85694 19.5622 5.15337 19.9221 5.15337C20.282 5.15337 20.5737 4.85694 20.5737 4.49128V1.27042Z" fill="#0070BA"/>
<g clip-path="url(#clip1_264_150)">
<path d="M9.47362 17.6083H6.52638C6.23567 17.6083 6 17.871 6 18.1949V21.0217C6 21.3457 6.23567 21.6083 6.52638 21.6083H9.47362C9.76433 21.6083 10 21.3457 10 21.0217V18.1949C10 17.871 9.76433 17.6083 9.47362 17.6083Z" fill="#EDEDED"/>
</g>
<g clip-path="url(#clip2_264_150)">
<path d="M14.4736 17.6083H11.5264C11.2357 17.6083 11 17.871 11 18.1949V21.0217C11 21.3457 11.2357 21.6083 11.5264 21.6083H14.4736C14.7643 21.6083 15 21.3457 15 21.0217V18.1949C15 17.871 14.7643 17.6083 14.4736 17.6083Z" fill="#EDEDED"/>
</g>
<g clip-path="url(#clip3_264_150)">
<path d="M19.4736 17.6083H16.5264C16.2357 17.6083 16 17.871 16 18.1949V21.0217C16 21.3457 16.2357 21.6083 16.5264 21.6083H19.4736C19.7643 21.6083 20 21.3457 20 21.0217V18.1949C20 17.871 19.7643 17.6083 19.4736 17.6083Z" fill="#EDEDED"/>
</g>
<g clip-path="url(#clip4_264_150)">
<path d="M9.47362 12.6083H6.52638C6.23567 12.6083 6 12.871 6 13.1949V16.0217C6 16.3457 6.23567 16.6083 6.52638 16.6083H9.47362C9.76433 16.6083 10 16.3457 10 16.0217V13.1949C10 12.871 9.76433 12.6083 9.47362 12.6083Z" fill="#EDEDED"/>
</g>
<g clip-path="url(#clip5_264_150)">
<path d="M14.4736 12.6083H11.5264C11.2357 12.6083 11 12.871 11 13.1949V16.0217C11 16.3457 11.2357 16.6083 11.5264 16.6083H14.4736C14.7643 16.6083 15 16.3457 15 16.0217V13.1949C15 12.871 14.7643 12.6083 14.4736 12.6083Z" fill="#EDEDED"/>
</g>
<g clip-path="url(#clip6_264_150)">
<path d="M19.4736 12.6083H16.5264C16.2357 12.6083 16 12.871 16 13.1949V16.0217C16 16.3457 16.2357 16.6083 16.5264 16.6083H19.4736C19.7643 16.6083 20 16.3457 20 16.0217V13.1949C20 12.871 19.7643 12.6083 19.4736 12.6083Z" fill="#EDEDED"/>
</g>
</g>
<defs>
<clipPath id="clip0_264_150">
<rect width="23.7145" height="25.5386" fill="white" transform="translate(0.912109 0.608337)"/>
</clipPath>
<clipPath id="clip1_264_150">
<rect width="4" height="4" fill="white" transform="translate(6 17.6083)"/>
</clipPath>
<clipPath id="clip2_264_150">
<rect width="4" height="4" fill="white" transform="translate(11 17.6083)"/>
</clipPath>
<clipPath id="clip3_264_150">
<rect width="4" height="4" fill="white" transform="translate(16 17.6083)"/>
</clipPath>
<clipPath id="clip4_264_150">
<rect width="4" height="4" fill="white" transform="translate(6 12.6083)"/>
</clipPath>
<clipPath id="clip5_264_150">
<rect width="4" height="4" fill="white" transform="translate(11 12.6083)"/>
</clipPath>
<clipPath id="clip6_264_150">
<rect width="4" height="4" fill="white" transform="translate(16 12.6083)"/>
</clipPath>
</defs>
</svg>
