<svg width="31" height="21" viewBox="0 0 31 21" fill="none" xmlns="http://www.w3.org/2000/svg">
<g clip-path="url(#clip0_264_9563)">
<path d="M0.849976 0.608398H16.6318C17.102 0.608398 17.4818 1.0027 17.4818 1.49087V12.6345H0V1.49087C0 1.0027 0.379776 0.608398 0.849976 0.608398Z" fill="#0070BA"/>
<path d="M1.04297 1.69745L1.04297 11.5518L16.433 11.5518V1.69745L1.04297 1.69745Z" fill="#DF1B74"/>
<path d="M24.6615 3.4875H18.6152C18.2776 3.4875 18.0063 3.77228 18.0063 4.11963V13.4701H29.3333L25.3185 3.96317C25.2191 3.67527 24.9569 3.48438 24.6615 3.48438V3.4875ZM20.7914 4.93326H24.6615L26.3464 9.03271H20.7914V4.93326Z" fill="#0070BA"/>
<path d="M23.5672 11.8615L24.3388 9.88379C24.5106 9.36118 24.9869 9.00757 25.5203 9.00757H28.6851C29.9661 9.00757 31.003 10.0841 31.003 11.414L30.6534 13.9206C30.6534 14.9784 29.8275 15.8389 28.8057 15.8389H6.41699V13.0788H21.9275C22.669 13.0788 23.3291 12.5907 23.5672 11.8615Z" fill="#0070BA"/>
<path d="M5.6796 18.5196C7.31066 18.1181 8.31936 16.4197 7.93259 14.7263C7.54582 13.0329 5.91005 11.9856 4.27899 12.3872C2.64792 12.7887 1.63922 14.4871 2.02599 16.1805C2.41276 17.8739 4.04854 18.9212 5.6796 18.5196Z" fill="#0070BA"/>
<path d="M8.25874 15.8671C8.10804 15.8671 7.98446 15.7388 7.98446 15.5823C7.98446 13.8612 6.63716 12.4624 4.9794 12.4624C3.32165 12.4624 1.97435 13.8612 1.97435 15.5823C1.97435 15.7388 1.85077 15.8671 1.70006 15.8671C1.54936 15.8671 1.42578 15.7388 1.42578 15.5823C1.42578 13.5482 3.02024 11.8928 4.9794 11.8928C6.93857 11.8928 8.53303 13.5482 8.53303 15.5823C8.53303 15.7388 8.40945 15.8671 8.25874 15.8671Z" fill="#559DE1"/>
<path d="M3.06543 15.454C3.06543 16.5492 3.92143 17.438 4.97637 17.438C6.0313 17.438 6.88731 16.5492 6.88731 15.454C6.88731 14.3587 6.0313 13.47 4.97637 13.47C3.92143 13.47 3.06543 14.3587 3.06543 15.454Z" fill="#D9357F"/>
<path d="M27.0706 18.5087C28.6974 18.0889 29.6884 16.3793 29.284 14.6903C28.8796 13.0013 27.233 11.9725 25.6062 12.3924C23.9794 12.8122 22.9885 14.5218 23.3929 16.2108C23.7973 17.8998 25.4439 18.9286 27.0706 18.5087Z" fill="#0070BA"/>
<path d="M29.6167 15.8671C29.4659 15.8671 29.3424 15.7388 29.3424 15.5823C29.3424 13.8612 27.9951 12.4624 26.3373 12.4624C24.6796 12.4624 23.3323 13.8612 23.3323 15.5823C23.3323 15.7388 23.2087 15.8671 23.058 15.8671C22.9073 15.8671 22.7837 15.7388 22.7837 15.5823C22.7837 13.5482 24.3781 11.8928 26.3373 11.8928C28.2965 11.8928 29.8909 13.5482 29.8909 15.5823C29.8909 15.7388 29.7674 15.8671 29.6167 15.8671Z" fill="#559DE1"/>
<path d="M24.4263 15.454C24.4263 16.5492 25.2823 17.438 26.3372 17.438C27.3921 17.438 28.2481 16.5492 28.2481 15.454C28.2481 14.3587 27.3921 13.47 26.3372 13.47C25.2823 13.47 24.4263 14.3587 24.4263 15.454Z" fill="#D9357F"/>
<path d="M23.3561 14.8469H7.95703V16.5305H23.3561V14.8469Z" fill="#559DE1"/>
</g>
<ellipse cx="15.5" cy="19.6084" rx="12.5" ry="1" fill="#E0E0E0"/>
<defs>
<clipPath id="clip0_264_9563">
<rect width="31" height="18" fill="white" transform="translate(0 0.608398)"/>
</clipPath>
</defs>
</svg>
