<svg width="168" height="136" viewBox="0 0 168 136" fill="none" xmlns="http://www.w3.org/2000/svg">
<ellipse cx="83.082" cy="118.492" rx="60.5904" ry="11.0164" fill="#E0E0E0"/>
<path d="M133.527 48.1677L84.4935 30.4507C84.1795 30.338 83.8206 30.338 83.5066 30.4507L34.4726 48.1677C33.8894 48.3705 33.5081 48.9341 33.5081 49.5426C33.5081 50.1512 33.8894 50.7148 34.4726 50.9176L83.529 68.6346C83.686 68.7022 83.843 68.7247 84.0225 68.7247C84.2019 68.7247 84.3589 68.7022 84.516 68.6346L133.55 50.9176C134.133 50.7148 134.514 50.1738 134.514 49.5426C134.514 48.9115 134.133 48.3705 133.55 48.1677H133.527Z" fill="#1CA7E3"/>
<path d="M84.4935 65.9072L35.4371 48.1677C34.9885 48.0099 34.495 48.0775 34.1137 48.348C33.7324 48.6185 33.5081 49.0693 33.5081 49.5427V112.679C33.5081 113.265 33.8445 113.783 34.3829 114.009L83.4393 134.904C83.6187 134.972 83.8206 135.017 84 135.017C84.2692 135.017 84.5608 134.927 84.8076 134.769C85.2113 134.498 85.458 134.047 85.458 133.552V67.2596C85.458 66.651 85.0767 66.11 84.4935 65.8846V65.9072Z" fill="#1CA7E3"/>
<path d="M133.886 48.348C133.505 48.0775 133.012 48.0099 132.563 48.1677L83.5066 65.8846C82.9234 66.0875 82.5421 66.6285 82.5421 67.2596V133.552C82.5421 134.047 82.7888 134.498 83.1926 134.769C83.4393 134.927 83.7085 134.994 83.9776 134.994C84.1795 134.994 84.3814 134.949 84.5608 134.859L133.595 112.747C134.111 112.499 134.447 111.98 134.447 111.417V49.5427C134.447 49.0693 134.223 48.6185 133.842 48.348H133.886Z" fill="#0070BA"/>
<path d="M98.625 35.5449L50.4434 55.065V79.2511C50.4434 79.9273 50.8696 80.5585 51.4977 80.7839L65.0908 85.9682C65.2702 86.0359 65.4721 86.0809 65.674 86.0809C66.0105 86.0809 66.3245 85.9908 66.6161 85.7879C67.0647 85.4723 67.3339 84.9764 67.3339 84.4355V61.3313L117.826 42.4874L98.625 35.5449Z" fill="#DF1B74"/>
<path d="M92.0304 120.906C91.4696 120.906 90.9537 120.591 90.7069 120.05C90.3705 119.328 90.7069 118.449 91.4247 118.134L109.773 109.816C110.513 109.478 111.366 109.816 111.68 110.537C112.016 111.281 111.68 112.138 110.962 112.453L92.6136 120.771C92.4117 120.861 92.2098 120.906 92.0079 120.906H92.0304Z" fill="#C7E9FF"/>
<path d="M91.2452 108.396C90.9312 108.396 90.5947 108.283 90.3256 108.058C89.7199 107.54 89.6302 106.638 90.1237 106.007L94.1837 101.048C94.6547 100.462 95.5071 100.349 96.1352 100.777L99.3652 103.054C100.016 103.505 100.173 104.429 99.7241 105.083C99.2531 105.736 98.3558 105.894 97.7053 105.443L95.5744 103.933L92.3668 107.833C92.0752 108.171 91.6714 108.351 91.2452 108.351V108.396Z" fill="#C7E9FF"/>
<path d="M95.3052 119.216C94.4977 119.216 93.8472 118.562 93.8472 117.773V101.995C93.8472 101.183 94.4977 100.552 95.3052 100.552C96.1127 100.552 96.7632 101.206 96.7632 101.995V117.773C96.7632 118.584 96.1127 119.216 95.3052 119.216Z" fill="#C7E9FF"/>
<path d="M102.191 103.663C101.877 103.663 101.541 103.55 101.272 103.325C100.644 102.806 100.576 101.905 101.07 101.273L105.13 96.337C105.601 95.7509 106.453 95.6382 107.081 96.0665L110.311 98.3431C110.962 98.7939 111.119 99.7181 110.67 100.372C110.222 101.025 109.302 101.183 108.652 100.732L106.521 99.2222L103.313 103.122C103.021 103.46 102.618 103.64 102.191 103.64V103.663Z" fill="#C7E9FF"/>
<path d="M106.251 114.482C105.444 114.482 104.816 113.829 104.816 113.017V97.2386C104.816 96.4272 105.466 95.7735 106.251 95.7735C107.037 95.7735 107.709 96.4272 107.709 97.2386V113.017C107.709 113.829 107.059 114.482 106.251 114.482Z" fill="#C7E9FF"/>
<path d="M65.8759 60.7227L51.879 55.6736L50.5107 55.1777C50.4659 55.3355 50.421 55.4933 50.421 55.6736V79.2511C50.421 79.9273 50.8472 80.5585 51.4753 80.7839L65.0684 85.9682C65.2478 86.0358 65.4497 86.0809 65.6516 86.0809C65.9881 86.0809 66.3021 85.9908 66.5937 85.7879C67.0423 85.4723 67.3115 84.9764 67.3115 84.4355V61.2412L65.8535 60.7227H65.8759Z" fill="#DF1B74"/>
<path d="M11.0967 82.1184H2.87903C1.52818 82.1184 0.458763 83.216 0.458763 84.5387C0.458763 85.8614 1.55632 86.9589 2.87903 86.9589H11.0967C12.4475 86.9589 13.5169 85.8614 13.5169 84.5387C13.5169 83.216 12.4194 82.1184 11.0967 82.1184Z" fill="#BDBDBD"/>
<path d="M165.121 82.1184H156.903C155.581 82.1184 154.483 83.216 154.483 84.5387C154.483 85.8614 155.581 86.9589 156.903 86.9589H165.121C166.472 86.9589 167.541 85.8614 167.541 84.5387C167.541 83.216 166.472 82.1184 165.121 82.1184Z" fill="#BDBDBD"/>
<path d="M84.0142 0.983398C82.6633 0.983398 81.5939 2.08096 81.5939 3.40366V11.6213C81.5939 12.9721 82.6915 14.0416 84.0142 14.0416C85.3369 14.0416 86.4344 12.944 86.4344 11.6213V3.40366C86.4344 2.05282 85.3369 0.983398 84.0142 0.983398Z" fill="#BDBDBD"/>
<path d="M28.3481 25.4673C27.3912 24.5105 25.8715 24.5105 24.9147 25.4673C23.9578 26.4242 23.9578 27.9439 24.9147 28.9007L30.7402 34.7262C31.2186 35.2047 31.8378 35.4298 32.4569 35.4298C33.076 35.4298 33.6952 35.2047 34.1736 34.7262C35.1304 33.7694 35.1304 32.2497 34.1736 31.2929L28.3481 25.4673Z" fill="#BDBDBD"/>
<path d="M139.652 25.4673L133.827 31.2929C132.87 32.2497 132.87 33.7694 133.827 34.7262C134.305 35.2047 134.924 35.4298 135.543 35.4298C136.162 35.4298 136.782 35.2047 137.26 34.7262L143.085 28.9007C144.042 27.9439 144.042 26.4242 143.085 25.4673C142.129 24.5105 140.609 24.5105 139.652 25.4673Z" fill="#BDBDBD"/>
</svg>
