<svg width="34" height="31" viewBox="0 0 34 31" fill="none" xmlns="http://www.w3.org/2000/svg">
<g clip-path="url(#clip0_264_9584)">
<ellipse cx="17.8428" cy="29.7515" rx="16.5835" ry="1.5445" fill="#E0E0E0"/>
<path d="M25.4818 19.1473C27.4477 14.2054 25.2465 8.51684 20.5654 6.44151C15.8843 4.36617 10.496 6.68995 8.53014 11.6318C6.56432 16.5737 8.76547 22.2622 13.4465 24.3376C18.1276 26.4129 23.516 24.0891 25.4818 19.1473Z" fill="#D9357F"/>
<path d="M14.0107 17.255C14.4294 17.4537 14.814 17.5976 15.1645 17.6884C15.515 17.7792 15.8152 17.8237 16.0684 17.8237C16.2907 17.8237 16.4806 17.7672 16.638 17.6507C16.7954 17.5359 16.8749 17.3766 16.8749 17.1745C16.8749 17.1248 16.87 17.0751 16.8587 17.022C16.8473 16.9706 16.8311 16.9209 16.81 16.8764C16.7889 16.8318 16.7548 16.7736 16.7078 16.7033C16.6607 16.6331 16.6201 16.58 16.5861 16.544C16.552 16.508 16.4157 16.3676 16.1755 16.1243C15.4923 15.427 15.0379 14.9337 14.8108 14.6441C14.6355 14.4197 14.5008 14.1679 14.4035 13.8903C14.3077 13.6128 14.259 13.3421 14.259 13.0766C14.259 12.8693 14.2882 12.6654 14.345 12.465C14.4034 12.2646 14.4878 12.0744 14.5982 11.8945C14.7085 11.7146 14.8432 11.5519 14.999 11.408C15.1548 11.2641 15.3252 11.1459 15.5118 11.0533C15.6968 10.9608 15.9743 10.8649 16.341 10.7655C16.3491 10.6216 16.354 10.536 16.354 10.5086L16.3475 10.0683V9.29736C16.8132 9.30593 17.1995 9.31107 17.5078 9.31107C17.8502 9.31107 18.2332 9.30764 18.6616 9.29736C18.6405 9.79761 18.6291 10.0906 18.6291 10.1762V10.757C19.0526 10.8204 19.4681 10.9129 19.8786 11.0345C19.9078 11.7626 19.9484 12.5181 20.0003 13.301C19.6547 13.1348 19.335 13.0149 19.0429 12.943C18.7508 12.871 18.5074 12.835 18.3159 12.835C18.0985 12.835 17.9183 12.8881 17.7739 12.9944C17.6311 13.1006 17.5597 13.2376 17.5597 13.4038C17.5597 13.5477 17.6019 13.683 17.6847 13.8098C17.7674 13.9366 17.8859 14.0754 18.04 14.2295C18.595 14.7795 19.004 15.2197 19.2668 15.5487C19.5297 15.8776 19.7147 16.1911 19.8202 16.4858C19.9273 16.7804 19.9809 17.0734 19.9809 17.3612C19.9809 17.601 19.9517 17.8237 19.8949 18.0345C19.8364 18.2435 19.7521 18.4371 19.6417 18.6135C19.5314 18.79 19.4032 18.9476 19.2571 19.0863C19.1111 19.2268 18.9618 19.345 18.8092 19.4444C18.6551 19.5438 18.4295 19.6585 18.1309 19.7887L18.1179 20.647C18.1179 20.9314 18.1196 21.2055 18.1244 21.4728C17.6587 21.4642 17.2887 21.4591 17.0161 21.4591C16.7435 21.4591 16.3394 21.4642 15.8055 21.4728C15.8266 21.1575 15.838 20.7584 15.838 20.2753V19.9977C15.4923 19.9481 15.2018 19.8967 14.9698 19.8418C14.7377 19.787 14.4521 19.7014 14.1146 19.5849C14.0854 18.4525 14.0513 17.6747 14.0124 17.2516L14.0107 17.255Z" fill="#EDEDED"/>
<path d="M4.07467 15.3876H2.4292C2.4292 6.90231 8.9689 0 17.0048 0C22.1927 0 27.0302 2.94834 29.6298 7.69379L28.2067 8.56407C25.8991 4.35313 21.6069 1.73714 17.0048 1.73714C9.8744 1.73714 4.07305 7.86168 4.07305 15.3893L4.07467 15.3876Z" fill="#0070BA"/>
<path d="M3.29419 17.7329L0 14.3442L1.14729 13.1005L3.26336 15.2779L5.32588 13.0422L6.504 14.2552L3.29419 17.7329Z" fill="#0070BA"/>
<path d="M16.9937 30.8932C11.8057 30.8932 6.96831 27.9449 4.36865 23.1994L5.79181 22.3291C8.09937 26.5401 12.3916 29.1561 16.9937 29.1561C24.1241 29.1561 29.9254 23.0315 29.9254 15.5039H31.5709C31.5709 23.9892 25.0328 30.8915 16.9953 30.8915L16.9937 30.8932Z" fill="#0070BA"/>
<path d="M30.7044 13.1604L34.0003 16.549L32.8513 17.7928L30.7353 15.6154L28.6728 17.8493L27.4946 16.6381L30.7044 13.1604Z" fill="#0070BA"/>
</g>
<defs>
<clipPath id="clip0_264_9584">
<rect width="34" height="30.8934" fill="white"/>
</clipPath>
</defs>
</svg>
