<svg width="34" height="31" viewBox="0 0 34 31" fill="none" xmlns="http://www.w3.org/2000/svg">
<ellipse cx="16.9319" cy="29.408" rx="16.9319" ry="1.48526" fill="#E0E0E0"/>
<path d="M27.9406 3.55859H6.32709C6.11381 3.55859 5.94092 3.73149 5.94092 3.94476V29.2238C5.94092 29.4371 6.11381 29.61 6.32709 29.61H27.9406C28.1538 29.61 28.3267 29.4371 28.3267 29.2238V3.94476C28.3267 3.73149 28.1538 3.55859 27.9406 3.55859Z" fill="#0070BA"/>
<path d="M25.5345 5.54285H9.02435C8.81108 5.54285 8.63818 5.71574 8.63818 5.92901V26.0751C8.63818 26.2883 8.81108 26.4612 9.02435 26.4612H25.5345C25.7477 26.4612 25.9206 26.2883 25.9206 26.0751V5.92901C25.9206 5.71574 25.7477 5.54285 25.5345 5.54285Z" fill="#EDEDED"/>
<path d="M23.5739 2.38235H19.8727C19.6826 1.03968 18.53 0 17.1339 0C15.7377 0 14.5852 1.03968 14.395 2.38235H10.6938C10.4799 2.38235 10.3076 2.55464 10.3076 2.76852V6.85595C10.3076 7.06983 10.4799 7.24212 10.6938 7.24212H23.5739C23.7878 7.24212 23.9601 7.06983 23.9601 6.85595V2.76852C23.9601 2.55464 23.7878 2.38235 23.5739 2.38235Z" fill="#D9357F"/>
<path d="M12.8683 9.70165C12.8683 10.272 12.4049 10.7354 11.8345 10.7354C11.2642 10.7354 10.8008 10.272 10.8008 9.70165C10.8008 9.13131 11.2642 8.66791 11.8345 8.66791C12.4049 8.66791 12.8683 9.13131 12.8683 9.70165Z" fill="#B1DBF6"/>
<path d="M22.992 10.0819H14.6508C14.4369 10.0819 14.2646 9.90961 14.2646 9.69574C14.2646 9.48186 14.4369 9.30957 14.6508 9.30957H22.992C23.2059 9.30957 23.3782 9.48186 23.3782 9.69574C23.3782 9.90961 23.2059 10.0819 22.992 10.0819Z" fill="#B1DBF6"/>
<path d="M12.8683 13.0405C12.8683 13.6109 12.4049 14.0743 11.8345 14.0743C11.2642 14.0743 10.8008 13.6109 10.8008 13.0405C10.8008 12.4702 11.2642 12.0068 11.8345 12.0068C12.4049 12.0068 12.8683 12.4702 12.8683 13.0405Z" fill="#B1DBF6"/>
<path d="M22.992 13.4267H14.6508C14.4369 13.4267 14.2646 13.2544 14.2646 13.0405C14.2646 12.8266 14.4369 12.6544 14.6508 12.6544H22.992C23.2059 12.6544 23.3782 12.8266 23.3782 13.0405C23.3782 13.2544 23.2059 13.4267 22.992 13.4267Z" fill="#B1DBF6"/>
<path d="M12.8683 16.3794C12.8683 16.9497 12.4049 17.4131 11.8345 17.4131C11.2642 17.4131 10.8008 16.9497 10.8008 16.3794C10.8008 15.809 11.2642 15.3456 11.8345 15.3456C12.4049 15.3456 12.8683 15.809 12.8683 16.3794Z" fill="#B1DBF6"/>
<path d="M22.992 16.7656H14.6508C14.4369 16.7656 14.2646 16.5933 14.2646 16.3795C14.2646 16.1656 14.4369 15.9933 14.6508 15.9933H22.992C23.2059 15.9933 23.3782 16.1656 23.3782 16.3795C23.3782 16.5933 23.2059 16.7656 22.992 16.7656Z" fill="#B1DBF6"/>
<path d="M12.8683 19.7242C12.8683 20.2945 12.4049 20.7579 11.8345 20.7579C11.2642 20.7579 10.8008 20.2945 10.8008 19.7242C10.8008 19.1538 11.2642 18.6904 11.8345 18.6904C12.4049 18.6904 12.8683 19.1538 12.8683 19.7242Z" fill="#B1DBF6"/>
<path d="M22.992 20.1044H14.6508C14.4369 20.1044 14.2646 19.9321 14.2646 19.7182C14.2646 19.5043 14.4369 19.332 14.6508 19.332H22.992C23.2059 19.332 23.3782 19.5043 23.3782 19.7182C23.3782 19.9321 23.2059 20.1044 22.992 20.1044Z" fill="#B1DBF6"/>
<path d="M28.9809 21.7892C28.9662 21.7059 28.9172 21.6323 28.8485 21.5882L27.5981 20.7251C27.4559 20.627 27.2548 20.6614 27.1568 20.8036L23.5525 26.026C23.5035 26.0947 23.4888 26.1829 23.5035 26.2614C23.5182 26.3448 23.5672 26.4183 23.6359 26.4625L24.8863 27.3255C24.9403 27.3647 25.004 27.3794 25.0678 27.3794C25.1708 27.3794 25.2688 27.3304 25.3277 27.2421L28.9319 22.0148C28.9809 21.9461 28.9956 21.8628 28.9809 21.7794V21.7892Z" fill="#FEBFDC"/>
<path d="M33.1788 13.9726C32.8748 13.7667 32.5119 13.6882 32.1539 13.7519C31.7911 13.8157 31.4821 14.0217 31.2713 14.3208L26.9168 20.6319C26.8677 20.7005 26.853 20.7839 26.8677 20.8672C26.8825 20.9506 26.9315 21.0241 27.0001 21.0683L28.7361 22.2648C28.79 22.304 28.8537 22.3187 28.9175 22.3187C29.0205 22.3187 29.1186 22.2697 29.1774 22.1814L33.5319 15.8703C33.9634 15.2476 33.8065 14.3943 33.1837 13.9628L33.1788 13.9726Z" fill="#D9357F"/>
<path d="M31.6386 20.426C31.5749 20.426 31.516 20.4064 31.4572 20.3721C31.315 20.274 31.2758 20.0779 31.3787 19.9307L33.3206 17.116L32.845 16.0225C32.7763 15.8607 32.845 15.6743 33.0117 15.6057C33.1735 15.537 33.3598 15.6057 33.4285 15.7724L33.9728 17.0278C34.0169 17.1258 34.0071 17.2435 33.9434 17.3318L31.9034 20.2887C31.8446 20.377 31.7416 20.426 31.6435 20.426H31.6386Z" fill="#D9357F"/>
<path d="M23.5526 26.0358L22.5571 29.3753L25.3277 27.2569L23.5526 26.0358Z" fill="#D9357F"/>
</svg>
